<svg width="371" height="600" viewBox="0 0 371 600" fill="none" xmlns="http://www.w3.org/2000/svg">
<g clip-path="url(#clip0_263_650)">
<g opacity="0.05">
<path d="M43.8953 10.8932C48.8604 12.7244 54.0789 13.1194 59.1767 12.05C64.2744 10.9807 69.1251 8.4736 73.3812 4.70806C79.9272 -1.16101 88.4192 -1.22447 98.6114 4.49281C107.005 9.21084 114.731 16.8256 119.724 22.4038C121.094 23.9367 122.834 24.8119 124.649 24.881C126.464 24.9502 128.242 24.2092 129.68 22.7833L129.955 22.5051C134.904 17.6394 140.999 15.1001 147.225 15.3095C153.451 15.5189 159.433 18.4643 164.178 23.656C215.033 79.197 255.439 116.954 287.716 139.09C310.666 154.825 329.506 162.591 344.899 162.591C348.474 162.609 352.042 162.147 355.544 161.212C380.115 154.483 391.368 124.126 403.34 91.9977C409.493 75.4657 415.861 58.3645 424.313 43.6413C433.857 27.0081 444.817 15.8138 457.8 9.48936C462.49 9.48786 467.135 10.678 471.466 12.9919C475.798 15.3058 479.73 18.6977 483.04 22.9729C494.963 38.2526 506.806 49.8136 518.266 57.3523C529.725 64.8912 541.383 68.7364 552.499 68.4202C562.661 68.0502 572.614 64.6146 581.553 58.3897C591.097 51.9263 600.591 42.1992 609.771 29.4621L610.272 28.7915C613.304 24.6919 617.028 21.5444 621.156 19.5924C625.284 17.6404 629.705 16.936 634.078 17.5339C638.535 18.1048 642.828 19.9859 646.632 23.0322C650.433 26.0785 653.64 30.2086 656.006 35.1034C661.185 45.7409 666.296 53.6464 671.211 58.6174C676.125 63.5882 680.903 65.7262 685.532 65.0938C691.261 64.2969 696.874 59.1487 702.24 49.7885C707.606 40.4283 712.648 27.0205 717.553 9.4134L717.386 9.33743C712.471 26.8815 707.341 40.4412 702.092 49.6494C696.844 58.8579 691.212 64.0691 685.532 64.8281C680.961 65.4606 676.184 63.2974 671.338 58.4024C666.492 53.5073 661.342 45.5511 656.183 34.9387C653.806 30.0068 650.579 25.8446 646.753 22.7741C642.927 19.7034 638.603 17.8065 634.116 17.2303C629.716 16.6307 625.267 17.3397 621.113 19.3024C616.958 21.2652 613.21 24.4292 610.154 28.551L609.662 29.2341C600.493 41.9461 590.989 51.6606 581.495 58.1116C572.579 64.3223 562.654 67.7455 552.52 68.104C541.423 68.3948 529.913 64.6761 518.365 57.0615C506.816 49.4468 495.09 37.9872 483.188 22.7453C479.859 18.4428 475.904 15.0296 471.546 12.7025C467.19 10.3754 462.519 9.18035 457.8 9.18579C444.777 15.5102 433.789 26.7928 424.216 43.4766C415.753 58.2252 409.384 75.3264 403.222 91.8712C391.28 123.949 379.997 154.256 355.553 160.959C338.509 165.639 316.357 158.43 287.853 138.862C255.585 116.739 215.188 78.9822 164.345 23.4537C159.572 18.2465 153.56 15.2926 147.305 15.081C141.049 14.8694 134.925 17.4125 129.945 22.2898L129.67 22.5681C128.262 23.9549 126.527 24.6758 124.754 24.6091C122.982 24.5421 121.282 23.6918 119.94 22.2012C114.937 16.6231 107.162 8.98323 98.7785 4.25257C88.527 -1.50267 79.9766 -1.41419 73.3717 4.50547C69.1308 8.25649 64.2966 10.7521 59.2171 11.8128C54.1374 12.8735 48.9381 12.4731 43.9931 10.6403C41.2663 9.66601 38.4497 9.17253 35.6196 9.17314H0.138428V9.40072H35.6196C38.4178 9.41497 41.2017 9.91696 43.8953 10.8932Z" fill="#D8D1FF"/>
<path d="M43.6493 31.9916C48.61 33.8051 53.8188 34.2034 58.9116 33.1592C64.0043 32.115 68.8582 29.6532 73.1353 25.9454C89.2937 11.4752 114.416 37.7847 119.251 43.1983C120.646 44.7173 122.401 45.5824 124.227 45.6513C126.054 45.7202 127.845 44.9891 129.307 43.5778L129.581 43.3122C134.53 38.5836 140.568 36.124 146.729 36.3258C152.891 36.5274 158.823 39.3788 163.578 44.4253C213.037 98.4485 252.626 135.244 284.619 156.924C307.519 172.444 326.47 180.084 342.126 180.084C345.656 180.105 349.178 179.682 352.644 178.819C378.296 172.318 390.542 141.91 403.517 109.706C416.49 77.5021 429.858 44.2862 457.741 30.5747C467.108 30.6192 476.099 35.3236 482.835 43.7042C505.834 73.176 528.784 88.1145 551.055 88.1018H552.312C572.433 87.5959 591.688 74.7825 609.526 50.0412L609.82 49.662L610.027 49.3839C613.126 45.3891 616.88 42.3366 621.014 40.4494C625.146 38.5621 629.555 37.8876 633.919 38.4758C638.28 39.0638 642.484 40.8992 646.225 43.8481C649.964 46.7967 653.145 50.7841 655.533 55.5183C665.656 76.313 675.673 86.179 685.304 84.8509C697.1 83.2065 708.009 64.891 717.632 30.4609L717.268 30.2967C707.705 64.575 696.933 82.7766 685.255 84.3958C675.781 85.6607 665.903 75.9083 655.868 55.3033C653.447 50.5038 650.224 46.4614 646.432 43.4722C642.642 40.4831 638.379 38.6227 633.957 38.0274C629.534 37.4318 625.066 38.1166 620.875 40.0312C616.686 41.9459 612.881 45.0416 609.742 49.0926L609.535 49.3584L609.25 49.7504C591.471 74.403 572.315 87.1531 552.312 87.6968H551.055C528.892 87.6968 506.029 72.8092 483.11 43.4258C476.291 34.9427 467.184 30.1872 457.701 30.1574H457.633C429.592 43.9319 416.155 77.2868 403.173 109.542C390.188 141.796 378.039 171.938 352.574 178.402C335.178 182.804 313.003 175.657 284.755 156.545C252.793 134.89 213.225 98.1069 163.786 44.1091C158.964 38.9909 152.949 36.0993 146.702 35.8952C140.454 35.6912 134.333 38.1867 129.316 42.9835L129.031 43.2489C127.64 44.5903 125.937 45.2843 124.199 45.2176C122.462 45.1511 120.794 44.3275 119.467 42.8821C116.293 39.3658 107.9 30.5877 98.2771 25.351C87.9178 19.6969 79.367 19.7854 72.8801 25.604C64.791 32.8391 53.6057 35.1284 43.6887 31.5742C40.9622 30.6224 38.1496 30.1417 35.3247 30.1447H0V30.638H35.3247C38.1343 30.6087 40.9338 31.064 43.6493 31.9916Z" fill="#D8D1FF"/>
<path d="M43.4426 53.1019C53.3794 56.6563 64.9576 54.3666 72.9287 47.182C86.4037 35.1151 108.116 52.0773 118.819 64.0051C120.238 65.5136 122.006 66.3694 123.846 66.4359C125.685 66.5024 127.489 65.7758 128.971 64.3719L129.256 64.1192C138.908 54.5946 153.74 55.075 163.018 65.2067C211.071 117.687 249.835 153.521 281.512 174.733C304.393 190.038 323.452 197.59 339.405 197.59C342.864 197.607 346.318 197.221 349.723 196.439C376.556 190.203 389.785 159.757 403.782 127.465C417.139 96.7027 430.947 64.8907 457.701 51.7232C466.96 51.7232 476.515 56.6312 482.648 64.486C504.812 92.8826 528.369 107.846 550.867 107.846H552.155C572.659 107.328 591.892 94.8178 609.309 70.6711L609.565 70.3295C609.643 70.2283 609.73 70.1271 609.801 70.026C615.697 62.0826 624.348 58.2123 633.518 59.4139C642.687 60.6154 650.55 66.6614 655.091 75.9835C664.399 95.1213 673.844 104.785 683.211 104.785C683.842 104.787 684.47 104.745 685.099 104.659C697.217 102.976 708.51 84.585 717.748 51.5336L717.19 51.2679C708.028 84.0791 696.912 102.293 685.028 103.95C675.308 105.304 665.371 95.7667 655.543 75.6297C650.904 66.105 642.873 59.9324 633.527 58.7054C624.181 57.4784 615.353 61.425 609.328 69.5455L609.102 69.8363L608.817 70.2034C591.518 94.2362 572.452 106.619 552.096 107.125C529.353 107.707 505.478 92.7939 483.011 64.0051C476.76 55.9985 467.03 51.0148 457.604 51.0148H457.496C430.505 64.2708 416.628 96.222 403.212 127.123C389.275 159.226 376.104 189.558 349.546 195.73C312.296 204.382 253.127 162.742 163.332 64.663C153.848 54.3035 138.692 53.8104 128.824 63.5501L128.549 63.803C127.174 65.1046 125.502 65.7778 123.796 65.716C122.09 65.6541 120.448 64.8607 119.133 63.4614C108.321 51.3943 86.2955 34.255 72.5256 46.5877C64.6625 53.6205 53.2907 55.8973 43.5309 52.4062C40.8024 51.4691 37.9909 50.9928 35.1669 50.9893H0.00927734V51.7611H35.1669C37.9594 51.7359 40.742 52.1868 43.4426 53.1019Z" fill="#D8D1FF"/>
<path d="M43.2281 74.2026C53.0567 77.7316 64.9003 75.4673 72.714 68.4093C86.779 55.7603 110.436 75.9985 118.368 84.8529C119.808 86.3565 121.594 87.2084 123.449 87.2771C125.303 87.3455 127.123 86.627 128.629 85.2324L128.747 85.1188L128.905 84.9668C138.183 75.8216 153.535 76.315 162.43 86.0293C242.641 173.635 298.538 215.123 336.791 215.123C340.108 215.138 343.422 214.804 346.698 214.124C374.778 208.179 389.041 177.645 404.146 145.314C417.907 115.931 432.06 85.5486 457.683 72.9123C466.893 72.9123 476.613 77.8076 482.471 85.3209C504.093 113.035 527.683 127.644 550.643 127.644H552.019C572.66 127.113 592.315 114.565 609.103 91.3417L609.606 90.722C615.276 83.1327 624.133 79.2367 633.274 80.4383C642.413 81.6401 650.335 87.6355 654.659 96.5151C664.262 116.247 674.73 125.936 684.912 124.52C697.494 122.774 708.895 104.813 717.888 72.5834L717.13 72.242C708.285 104.066 697.08 121.8 684.834 123.495C675.006 124.861 664.774 115.337 655.348 95.9586C650.896 86.8135 642.679 80.6284 633.361 79.4014C624.044 78.1744 614.883 82.1335 609.035 90.0135L608.809 90.2792L608.524 90.646C591.934 113.654 572.385 126.063 552.01 126.607H550.652C527.869 126.607 504.526 112.111 483.05 84.5873C477.025 76.8714 467.05 71.9383 457.624 71.9383H457.476C431.549 84.6757 417.267 115.248 403.419 144.808C388.41 176.924 374.248 207.269 346.53 213.112C308.494 221.157 250.142 180.529 162.911 85.2576C153.594 75.1386 138.094 74.5822 128.374 84.1701L128.246 84.2837L128.098 84.423C126.734 85.6564 125.098 86.2903 123.432 86.2311C121.765 86.1718 120.158 85.4225 118.849 84.0941C112.486 77.1275 105.316 71.4813 97.5995 67.3597C87.1616 62.0092 78.3844 62.0976 72.2121 67.6253C64.5948 74.4556 53.0266 76.7197 43.4142 73.2792C40.687 72.3601 37.8791 71.8965 35.0599 71.9004H0.0605469V72.9251H35.0599C37.8134 72.9031 40.5586 73.3322 43.2281 74.2026Z" fill="#D8D1FF"/>
<path d="M43.0013 95.3122C52.7317 98.7906 64.8407 96.4632 72.4873 89.6457C85.5103 77.9832 108.716 95.363 117.906 105.609C119.384 107.067 121.183 107.888 123.045 107.953C124.906 108.019 126.736 107.327 128.275 105.975L128.393 105.874L128.55 105.722C137.612 96.7921 153.122 97.2728 161.85 106.747C240.047 192.165 295.215 232.577 334 232.577C337.207 232.589 340.41 232.293 343.581 231.692C372.98 226.089 388.323 195.491 404.52 163.085C418.566 135.068 433.083 106.102 457.595 94.0094C466.735 94.0094 476.622 98.8666 482.226 106.051C503.328 133.094 526.838 147.337 550.327 147.337H551.802C572.777 146.806 592.503 134.562 608.809 111.92L609.044 111.642C609.133 111.528 609.23 111.427 609.31 111.313C614.853 103.85 623.688 100.131 632.898 101.346C642.107 102.56 649.933 108.366 654.099 116.929C662.887 134.979 672.656 144.428 682.494 144.428C683.205 144.428 683.913 144.377 684.617 144.276C697.454 142.492 709.278 124.493 717.897 93.592L716.913 93.1492C708.433 123.507 696.913 141.215 684.481 142.986C674.356 144.39 664.125 135.143 654.925 116.246C650.601 107.392 642.392 101.295 632.977 100.055C623.561 98.816 614.304 102.674 608.514 110.415C608.446 110.506 608.374 110.591 608.298 110.668C608.19 110.795 608.091 110.909 608.004 111.035C591.874 133.398 572.403 145.503 551.704 146.022C528.027 146.629 504.201 132.487 482.904 105.14C477.104 97.7156 466.873 92.7191 457.457 92.7191H457.28C432.394 104.938 417.759 134.119 403.616 162.351C387.506 194.492 372.283 224.849 343.336 230.377C304.523 237.764 247.016 198.16 162.4 105.722C153.397 95.8813 137.239 95.3882 127.833 104.66L127.725 104.748L127.558 104.9C126.214 106.096 124.609 106.71 122.976 106.654C121.343 106.597 119.767 105.872 118.476 104.584C112.099 97.7258 104.917 92.214 97.1971 88.2545C86.651 83.0178 77.8641 83.119 71.8097 88.5453C64.5463 95.0468 52.5156 97.3994 43.1981 94.0219C40.4751 93.1214 37.6742 92.6668 34.8629 92.6688H0.0209961V93.9337H34.8629C37.6102 93.9452 40.3454 94.4085 43.0013 95.3122Z" fill="#D8D1FF"/>
<path d="M42.7743 116.41C52.2491 119.813 64.8979 117.422 72.2105 110.882C85.4301 99.0431 109.962 118.118 117.422 126.415C118.92 127.873 120.735 128.692 122.612 128.755C124.489 128.819 126.335 128.124 127.89 126.77L127.988 126.681L128.166 126.529C137.012 117.814 152.737 118.282 161.239 127.528C237.421 210.732 291.853 250.084 331.176 250.084C334.243 250.091 337.306 249.837 340.348 249.324C371.131 244.1 388.359 211.997 405.029 180.957C419.349 154.293 434.143 126.719 457.585 115.183C465.034 115.183 475.835 118.877 482.067 126.858C502.785 153.421 527.475 167.688 551.674 167.081C573.03 166.537 592.727 154.597 608.631 132.562C608.695 132.472 608.763 132.387 608.837 132.31C608.938 132.205 609.033 132.091 609.122 131.968C614.528 124.695 623.354 121.09 632.71 122.33C641.842 123.519 649.696 129.16 653.706 137.42C662.285 155.04 672.085 164.261 682.208 164.261C682.977 164.262 683.744 164.208 684.508 164.096C697.786 162.262 709.71 144.706 718.093 114.664L716.952 114.133C708.726 143.58 697.167 160.77 684.38 162.541C673.961 163.982 663.74 154.951 654.756 136.585C650.55 127.921 642.362 122.014 632.849 120.761C623.108 119.496 613.907 123.291 608.275 130.88C608.215 130.97 608.146 131.051 608.07 131.121C607.962 131.247 607.854 131.361 607.767 131.487C592.099 153.218 572.696 164.982 551.683 165.513C527.809 166.12 503.435 151.991 482.952 125.745C476.444 117.409 465.201 113.615 457.495 113.615H457.279C433.435 125.327 418.506 153.142 404.057 180.034C386.777 212.212 370.462 242.608 340.169 247.743C321.496 250.917 299.302 243.948 272.353 226.581C241.775 206.811 205.674 174.013 161.996 126.301C153.15 116.638 136.648 116.182 127.399 125.264L127.301 125.34L127.123 125.505C125.79 126.639 124.218 127.219 122.62 127.165C121.022 127.11 119.474 126.425 118.189 125.201C109.235 115.221 85.0469 97.4368 71.503 109.567C64.4657 115.891 52.2486 118.155 43.0882 114.879C40.3639 114.021 37.5684 113.596 34.7635 113.615H0.078125V115.183H34.8028C37.4888 115.175 40.1657 115.587 42.7743 116.41Z" fill="#D8D1FF"/>
<path d="M42.5477 137.519C51.9144 140.871 64.8395 138.493 71.9751 132.105C85.0963 120.355 109.874 139.34 116.931 147.208C119.575 150.155 124.716 150.332 127.507 147.562H127.586L127.772 147.398C136.254 139.037 152.521 139.518 160.61 148.359C202.873 194.553 238.188 226.428 268.479 245.756C291.401 260.404 311.096 267.613 328.356 267.613C331.243 267.615 334.127 267.405 336.994 266.98C369.243 262.173 387.712 229.995 405.57 198.879C420.118 173.581 435.145 147.373 457.505 136.317C465.26 136.317 476.072 140.251 481.831 147.702C502.039 173.594 526.758 187.507 551.488 186.913C573.218 186.356 592.894 174.719 608.365 153.267C608.425 153.189 608.492 153.117 608.562 153.052L608.866 152.698C614.126 145.614 622.94 142.136 632.456 143.375C641.616 144.577 649.39 150.041 653.252 157.972C661.529 174.972 671.622 184.155 681.912 184.155C682.713 184.157 683.514 184.103 684.312 183.991C697.805 182.119 710.161 164.55 718.18 135.799L716.844 135.179C708.98 163.247 697.088 180.373 684.154 182.17C673.627 183.624 663.071 174.694 654.462 156.998C650.362 148.587 642.195 142.806 632.602 141.554C622.656 140.289 613.408 143.945 607.844 151.433L607.656 151.635C607.542 151.752 607.434 151.879 607.333 152.015C592.127 173.1 572.804 184.535 551.467 185.066C527.14 185.686 502.776 171.962 482.853 146.437C476.778 138.645 465.446 134.572 457.387 134.572H457.131C434.319 145.779 419.125 172.24 404.441 197.816C386.749 228.616 368.466 260.467 336.837 265.183C317.859 268.018 295.705 261.124 269.119 244.136C238.935 224.834 203.748 193.048 161.544 146.942C152.845 137.456 135.989 136.95 126.917 145.93L126.838 145.994L126.642 146.171C125.327 147.261 123.787 147.817 122.223 147.765C120.659 147.714 119.144 147.056 117.874 145.88C110.601 137.772 84.9782 118.28 71.1688 130.701C64.338 136.811 51.9442 139.075 42.9411 135.849C40.2153 135.003 37.4197 134.579 34.6157 134.584H0.0981445V136.418H34.6157C37.2838 136.386 39.9462 136.755 42.5477 137.519Z" fill="#D8D1FF"/>
<path d="M42.3332 158.632C50.4024 161.516 63.9564 160.314 71.7308 153.345C84.0167 142.328 108.706 159.378 116.461 168.017C119.085 170.939 124.323 171.116 127.125 168.371H127.194L127.4 168.194C135.676 160.049 152.129 160.517 160.011 169.118C200.83 213.705 235.201 244.568 265.089 263.465C288.06 278 307.953 285.134 325.595 285.134C328.303 285.134 330.952 284.97 333.548 284.64C367.338 280.288 387.103 248.048 406.219 216.855C421.621 191.747 436.157 168.018 457.447 157.494C465.202 157.494 476.309 161.642 481.626 168.447C501.028 193.315 526.414 207.229 551.32 206.584C562.018 206.363 572.57 203.346 582.334 197.716C592.098 192.087 600.871 183.962 608.121 173.836L608.298 173.646C608.415 173.537 608.524 173.414 608.622 173.279C613.673 166.487 622.697 163.034 632.21 164.286C641.391 165.488 649.076 170.762 652.792 178.377C661.519 196.326 672.656 205.331 684.137 203.737C698.054 201.802 710.507 184.701 718.29 156.798L716.758 156.089C709.189 183.196 697.237 199.804 683.958 201.625C673.146 203.118 662.562 194.466 654.178 177.238C650.246 169.067 642.05 163.438 632.377 162.161C622.393 160.896 612.847 164.551 607.462 171.799L607.295 171.977C607.168 172.098 607.05 172.234 606.942 172.381C599.84 182.297 591.246 190.253 581.683 195.767C572.12 201.281 561.789 204.238 551.311 204.459C526.887 205.078 501.892 191.405 482.805 166.942C476.907 159.416 465.29 155.368 457.32 155.368H457.172L457.024 155.432C435.244 166.133 419.842 191.241 404.932 215.527C386.023 246.364 366.474 278.264 333.38 282.565C314.116 285.094 292.01 278.189 265.798 261.605C236.036 242.785 201.773 212.023 161.063 167.549C152.679 158.392 135.185 157.886 126.408 166.537L126.338 166.601C126.262 166.649 126.189 166.708 126.123 166.778C123.98 168.915 119.557 168.764 117.523 166.499C109.492 157.557 83.8103 140.025 70.7872 151.688C63.6222 158.113 50.5004 159.454 42.7555 156.671C40.0313 155.835 37.2409 155.41 34.4405 155.406H0.0400391V157.506H34.4405C37.0963 157.486 39.7452 157.863 42.3332 158.632Z" fill="#D8D1FF"/>
<path d="M42.1064 179.73C50.0872 182.588 64.1134 181.172 71.4848 174.569C83.0828 164.185 107.939 179.844 115.988 188.825C118.583 191.708 124.019 191.885 126.741 189.178H126.8L127.036 188.989C134.899 181.197 151.883 181.665 159.412 189.887C198.727 232.893 232.144 262.693 261.631 281.123C284.678 295.544 304.777 302.626 322.824 302.626C325.242 302.626 327.628 302.486 329.968 302.235C365.351 298.44 386.522 266.085 406.956 234.828C422.475 211.074 437.14 188.647 457.379 178.63C465.035 178.63 476.337 182.728 481.409 189.229C499.877 212.882 524.566 226.341 549.413 226.341H551.153C573.307 225.784 593.416 214.464 607.864 194.479L608.013 194.327C608.14 194.212 608.259 194.081 608.366 193.934C613.28 187.319 622.313 184.005 631.954 185.27C641.144 186.472 648.751 191.595 652.309 198.868C660.86 216.437 672.096 225.203 683.958 223.558C698.279 221.572 710.829 204.914 718.358 177.87L716.628 177.061C709.433 202.839 697.138 219.346 683.742 221.193C672.626 222.736 662.011 214.363 653.853 197.603C650 189.685 641.873 184.182 632.123 182.905C621.95 181.564 612.336 185.169 607.038 192.29L606.902 192.442C606.765 192.565 606.636 192.705 606.518 192.859C592.444 212.377 572.766 223.419 551.113 223.963C526.188 224.595 501.254 211.314 482.706 187.572C477.193 180.502 465.417 176.277 457.21 176.277H457.042L456.887 176.353C436.119 186.56 421.268 209.24 405.541 233.273C385.354 264.161 364.469 296.099 329.862 299.857C310.351 301.956 288.305 295.126 262.474 278.961C233.156 260.621 199.847 230.895 160.63 188.053C152.404 179.072 134.575 178.566 125.955 187.066C125.87 187.12 125.791 187.188 125.719 187.268C123.685 189.28 119.183 189.141 117.267 187.003C113.434 182.728 105.088 176.29 95.8396 172.267C88.1832 168.928 77.5686 166.284 70.5117 172.609C63.4547 178.933 50.2642 180.198 42.6764 177.415C39.9544 176.589 37.1678 176.165 34.3711 176.15H0.16748V178.528H34.3711C36.9764 178.554 39.5712 178.957 42.1064 179.73Z" fill="#D8D1FF"/>
<path d="M41.8807 200.84C49.8911 203.698 64.1526 202.105 71.239 195.78C82.837 185.395 108.676 201.978 115.517 209.593C118.082 212.464 123.675 212.641 126.398 209.934C126.492 209.876 126.581 209.804 126.663 209.719C134.358 202.13 151.48 202.598 158.803 210.592C196.594 251.865 229.039 280.653 258.002 298.629C281.199 313.01 301.574 320.055 320.08 320.055C322.106 320.055 324.121 319.967 326.106 319.801C363.346 316.614 385.943 284.169 407.803 252.762C423.4 230.375 438.133 209.213 457.339 199.638C465.094 199.714 476.466 203.812 481.213 209.883C499.289 232.941 523.697 245.898 549.147 245.944H551.006C573.523 245.363 593.642 234.372 607.619 214.981L607.747 214.854C607.889 214.735 608.022 214.595 608.14 214.437C612.917 208.012 621.901 204.811 631.729 206.089C640.928 207.354 648.438 212.198 651.848 219.193C660.095 236.143 671.741 244.896 683.8 243.226C698.317 241.202 711.321 224.594 718.485 198.778L716.52 197.892C709.581 222.735 697.256 238.698 683.546 240.595C672.301 242.163 661.363 233.853 653.549 217.827C649.814 210.136 641.754 204.786 631.925 203.496C621.546 202.13 611.865 205.633 606.666 212.628L606.548 212.742C606.398 212.87 606.26 213.019 606.135 213.185C592.522 232.07 572.923 242.77 550.966 243.327C538.328 243.611 525.772 240.636 514.041 234.578C502.308 228.519 491.638 219.499 482.658 208.049C477.349 201.244 465.28 197.045 457.103 197.045H456.915L456.739 197.133C436.994 206.835 422.054 228.288 406.24 250.993C384.616 281.982 362.334 314.034 325.938 317.145C284.482 320.676 230.227 285.156 160.09 208.555C152.02 199.701 133.857 199.246 125.365 207.607L125.1 207.821C123.134 209.719 118.623 209.58 116.815 207.569C108.745 198.588 82.3549 182.549 70.0296 193.655C63.4935 199.511 49.8119 200.966 42.3913 198.31C39.667 197.507 36.8806 197.104 34.0858 197.108H0.0493164V199.752H34.0858C36.7074 199.739 39.3224 200.104 41.8807 200.84Z" fill="#D8D1FF"/>
<path d="M41.684 221.939C49.5469 224.759 64.1133 223.203 71.0326 217.043C81.7066 207.468 107.487 221.976 115.065 230.426C117.611 233.259 123.36 233.436 126.044 230.768C126.143 230.696 126.238 230.616 126.329 230.527C133.671 223.292 151.274 223.747 158.242 231.362C230.788 310.606 280.5 337.536 317.468 337.523C359.317 337.523 384.881 303.042 408.746 270.839C424.363 249.779 439.115 229.869 457.289 220.851C463.962 220.926 476.101 224.43 481.006 230.729C498.206 252.763 523.486 265.754 548.971 265.754H550.868C573.749 265.172 593.83 254.483 607.373 235.7L607.481 235.599C607.635 235.472 607.775 235.323 607.904 235.156C612.475 229.009 621.743 225.86 631.492 227.137C640.683 228.402 648.103 233.057 651.366 239.786C659.426 256.355 671.18 264.869 683.633 263.136C698.534 261.074 711.596 244.933 718.565 219.953L716.442 218.966C709.768 242.872 697.413 258.305 683.398 260.253C671.839 261.858 660.86 253.826 653.274 238.243C649.657 230.793 641.598 225.594 631.72 224.329C621.134 222.938 611.374 226.353 606.292 233.183L606.184 233.285C606.026 233.424 605.878 233.58 605.741 233.752C592.58 252.005 573.071 262.364 550.809 262.921C525.254 263.579 499.788 250.803 482.588 228.769C477.133 221.774 464.258 218.043 457.033 218.043H456.828L456.63 218.144C437.887 227.352 422.918 247.553 407.064 268.943C384.46 299.413 361.115 330.92 324.14 334.425C281.877 338.408 228.065 304.069 159.628 229.25C151.716 220.61 133.219 220.117 124.894 228.314L124.599 228.554C122.761 230.375 118.21 230.249 116.48 228.314C109.6 220.661 82.0803 203.648 69.6765 214.741C63.3467 220.408 49.4878 221.824 42.2244 219.231C39.5007 218.452 36.7196 218.058 33.9294 218.055H0.0493164V220.965H33.9294C36.5342 220.926 39.1342 221.253 41.684 221.939Z" fill="#D8D1FF"/>
<path d="M41.4283 243.052C49.2029 245.823 64.034 244.317 70.757 238.271C81.3916 228.746 108.106 244.013 114.564 251.224C117.08 254.032 122.986 254.208 125.65 251.563H125.601C125.713 251.497 125.819 251.412 125.916 251.312C133.061 244.266 150.831 244.721 157.603 252.121C220.89 321.246 272.422 355.019 314.763 355.019C317.424 355.019 320.044 354.884 322.626 354.615C361.105 350.656 386.964 317.857 409.768 288.916C425.337 269.158 440.049 250.503 457.209 241.976C464.091 242.052 476.228 245.657 480.799 251.488C497.507 272.878 522.738 285.475 548.695 285.475H550.721C573.603 284.893 594.152 274.268 607.127 256.321L607.196 256.246C607.368 256.114 607.526 255.957 607.667 255.776C612.101 249.806 621.428 246.783 631.256 248.086C640.435 249.288 647.769 253.817 650.914 260.192C658.777 276.394 670.679 284.666 683.527 282.882C698.799 280.759 711.94 265.087 718.682 240.952L716.364 239.877C709.946 262.846 697.571 277.736 683.261 279.72C671.397 281.377 660.37 273.638 653.008 258.508C649.499 251.312 641.478 246.226 631.541 244.924C620.729 243.507 610.961 246.808 605.929 253.538L605.849 253.601C605.673 253.741 605.51 253.912 605.367 254.107C592.846 271.46 572.934 281.731 550.681 282.301C524.705 282.958 499.209 270.615 482.548 249.261C477.231 242.457 464.307 238.827 456.995 238.827H456.769L456.552 238.928C438.811 247.644 423.873 266.605 408.047 286.677C361.42 345.837 308.58 412.888 159.195 249.718C151.607 241.445 132.481 240.927 124.46 248.782C124.352 248.858 124.248 248.944 124.147 249.034C122.417 250.755 117.797 250.627 116.175 248.819C112.657 244.887 104.115 238.979 94.6107 235.273C86.7478 232.187 75.9369 229.758 69.3518 235.652C63.4545 240.977 49.1533 242.508 42.0963 239.978C39.3739 239.22 36.5966 238.838 33.8111 238.84H0.0883789V242.015H33.8206C36.3777 242.019 38.9275 242.367 41.4283 243.052Z" fill="#D8D1FF"/>
<path d="M41.2122 264.15C48.7999 266.867 64.1233 265.225 70.512 259.506C80.3406 250.741 107.065 264.198 114.092 272.028C116.549 274.772 122.525 274.975 125.198 272.434C125.321 272.363 125.437 272.273 125.543 272.167C132.344 265.464 150.567 265.919 156.995 272.94C218.267 339.866 269.1 372.563 312.003 372.563C315.043 372.563 318.04 372.397 320.996 372.069C360.143 367.744 387.134 335.526 410.938 307.105C426.399 288.638 441.005 271.207 457.132 263.175C463.924 263.25 476.239 266.806 480.555 272.319C497.174 293.621 523.338 305.927 550.545 305.207C573.75 304.625 594.263 294.33 606.824 276.962C607.012 276.825 607.183 276.654 607.335 276.456C611.64 270.662 620.927 267.766 630.991 269.096C640.024 270.283 647.435 274.724 650.345 280.706C657.942 296.302 670.258 304.537 683.309 302.729C698.72 300.578 712.274 285.019 718.693 262.036L716.177 260.873C710.114 282.578 697.414 297.301 683.036 299.3C670.847 300.994 659.761 293.545 652.625 278.873C649.234 271.916 641.253 266.982 631.278 265.667C620.466 264.25 610.343 267.512 605.467 274.003H605.408C605.212 274.147 605.034 274.325 604.878 274.533C592.818 291.268 572.973 301.184 550.456 301.754C523.917 302.423 498.522 290.495 482.402 269.841C477.292 263.302 464.052 259.722 456.847 259.722H456.602L456.376 259.836C439.666 268.057 424.775 285.803 409.051 304.574C385.56 332.618 358.924 364.403 320.7 368.641C276.707 373.511 223.702 341.357 158.655 270.322C151.244 262.214 131.813 261.696 123.921 269.372C123.797 269.44 123.681 269.528 123.577 269.638C121.955 271.244 117.286 271.119 115.773 269.423C108.991 261.833 80.6256 246.2 68.9196 256.686C63.2289 261.745 48.8491 263.338 41.8611 260.836C39.1403 260.093 36.3667 259.719 33.5854 259.722H0.0209961V263.162H33.5854C36.1471 263.157 38.7023 263.49 41.2122 264.15Z" fill="#D8D1FF"/>
<path d="M40.9852 285.26C48.5435 287.965 64.1118 286.257 70.2744 280.729C79.9754 272.042 107.624 286.12 113.619 292.835C116.047 295.528 122.151 295.743 124.804 293.253C124.936 293.177 125.062 293.085 125.178 292.975C131.773 286.46 150.162 286.902 156.393 293.708C222.246 365.641 270.946 390.093 309.18 390.093C354.54 390.093 385.177 355.661 412.205 325.266C427.489 308.101 441.926 291.86 457.102 284.309C463.805 284.4 476.298 287.889 480.367 293.165C496.249 313.517 523.111 325.735 550.445 325.039C573.974 324.445 594.429 314.489 606.585 297.718C606.787 297.569 606.971 297.385 607.136 297.173C611.255 291.645 620.789 288.813 630.862 290.14C639.856 291.318 647.168 295.58 649.92 301.247C657.34 316.425 669.805 324.469 683.26 322.597C698.985 320.41 712.647 305.308 718.83 283.17L716.116 281.907C710.319 302.688 697.6 316.867 682.945 318.893C670.619 320.613 659.179 313.262 652.367 299.26C649.096 292.544 641.164 287.75 631.147 286.435C620.121 284.981 609.937 288.143 605.131 294.492C604.918 294.646 604.723 294.837 604.552 295.061C592.934 311.175 573.198 320.738 550.386 321.319C523.848 321.991 497.753 310.188 482.401 290.533C477.27 283.955 463.245 280.653 456.846 280.653H456.58L456.335 280.768C440.609 288.51 425.866 305.029 410.318 322.509C385.843 350.021 358.108 381.2 319.176 385.753C274.22 391.066 221.587 360.026 158.271 290.888C151.017 282.97 131.281 282.449 123.516 289.939C123.389 290.018 123.267 290.111 123.153 290.218C121.639 291.721 116.931 291.609 115.516 290.027C111.722 285.802 102.601 280.426 93.844 277.264C78.5113 271.724 71.4639 275.152 68.6332 277.694C63.2471 282.513 48.4649 284.082 41.7617 281.68C39.0415 280.964 36.272 280.604 33.4957 280.604H0.078125V284.309H33.4957C36.0103 284.307 38.5193 284.624 40.9852 285.26Z" fill="#D8D1FF"/>
<path d="M40.7595 306.36C47.4724 308.764 63.5918 307.738 70.0295 301.971C73.961 298.442 82.2171 298.494 92.6355 302.11C101.865 305.311 110.327 310.485 113.139 313.632C115.527 316.303 121.758 316.516 124.402 314.075C124.541 313.997 124.672 313.899 124.795 313.784C131.056 307.613 149.878 308.044 155.785 314.493C213.006 376.991 262.427 407.564 306.429 407.564C310.301 407.564 314.144 407.322 317.929 406.856C358.54 401.795 387.79 370.806 413.602 343.485C428.629 327.571 442.831 312.533 457.042 305.463C463.874 305.551 476.386 309.067 480.152 313.899C495.111 333.062 520.911 344.748 547.97 344.748H550.347C574.191 344.142 594.576 334.516 606.372 318.339C606.596 318.19 606.801 317.997 606.981 317.77C610.912 312.42 620.515 309.725 630.765 311.066C639.729 312.242 646.924 316.301 649.539 321.665C656.772 336.54 669.382 344.269 683.251 342.346C699.36 340.12 713.06 325.484 719.007 304.185L716.058 302.831C710.516 322.703 697.797 336.325 682.887 338.4C670.218 340.159 658.708 333.111 652.114 319.554C648.958 313.078 641.085 308.422 631.04 307.108C622.489 305.981 610.528 307.359 604.809 314.886C604.575 315.04 604.363 315.24 604.179 315.48C593.013 330.963 573.365 340.183 550.279 340.777C523.18 341.462 497.203 330.103 482.362 311.115C477.379 304.727 463.274 301.516 456.809 301.516H456.524L456.258 301.656C441.513 308.904 427.017 324.233 411.684 340.45C386.218 367.416 357.351 397.975 317.682 402.933C271.704 408.676 219.396 378.763 157.829 311.497C150.949 303.906 130.544 303.401 123.075 310.561C122.935 310.629 122.806 310.727 122.692 310.851C121.316 312.217 116.49 312.115 115.202 310.673C108.627 303.349 79.3376 288.855 68.3 298.745C63.1497 303.361 48.24 304.943 41.6252 302.54C38.9066 301.844 36.1409 301.492 33.3689 301.49H0.12793V305.475H33.3689C35.8485 305.475 38.3225 305.771 40.7595 306.36Z" fill="#D8D1FF"/>
<path d="M40.5329 327.51C47.1182 329.861 63.7285 328.673 69.7828 323.245C78.5108 315.416 106.483 327.585 112.665 334.479C115.014 337.096 121.373 337.324 124.017 334.934C124.163 334.853 124.303 334.751 124.431 334.631C130.505 328.634 149.474 329.052 155.185 335.3C210.393 395.597 259.103 425.107 303.646 425.107C307.953 425.112 312.258 424.829 316.542 424.259C357.95 418.834 388.34 388.515 415.143 361.776C429.886 347.116 443.744 333.253 456.994 326.65C462.97 326.75 476.169 329.873 479.953 334.719C494.854 353.807 521.764 365.214 550.208 364.493C574.367 363.887 594.702 354.603 606.056 339.007C606.287 338.854 606.5 338.653 606.684 338.411C610.478 333.353 620.297 330.684 630.568 332.087C639.483 333.265 646.549 337.148 649.016 342.206C656.074 356.715 668.84 364.19 683.14 362.218C691.228 361.062 698.893 356.981 705.251 350.444C711.608 343.91 716.393 335.19 719.056 325.296L715.93 323.715C713.481 332.861 709.064 340.926 703.192 346.972C697.323 353.017 690.24 356.795 682.768 357.866C669.744 359.674 658.197 352.92 651.788 339.829C648.752 333.58 640.976 329.076 630.881 327.749C622.164 326.61 610.045 327.889 604.404 335.249C604.159 335.408 603.936 335.618 603.746 335.87C593.023 350.732 573.482 359.598 550.12 360.195C522.6 360.889 496.544 349.948 482.302 331.645C477.525 325.535 463.106 322.336 456.747 322.336H456.443L456.158 322.476C442.397 329.242 428.196 343.382 413.187 358.359C386.718 384.756 356.731 414.673 316.266 419.973C269.207 426.158 217.232 397.381 157.376 331.999C150.614 324.611 129.954 324.081 122.612 331.063C122.468 331.141 122.332 331.244 122.209 331.366C120.931 332.632 116.076 332.529 114.887 331.202C108.744 324.36 78.6586 310.118 67.965 319.692C63.0506 324.042 47.7965 325.611 41.4275 323.348C38.7104 322.669 35.9483 322.331 33.1807 322.336H0.0981445V326.574H33.1807C35.6483 326.596 38.1096 326.909 40.5329 327.51Z" fill="#D8D1FF"/>
<path d="M40.3178 348.568C46.7751 350.882 63.6503 349.719 69.5476 344.431C77.8823 336.956 106.416 348.808 112.195 355.247C114.505 357.776 120.972 358.04 123.616 355.714C123.775 355.633 123.923 355.521 124.057 355.386C129.797 349.731 149.2 350.149 154.586 356.029C207.76 414.114 255.771 442.573 300.846 442.561C305.658 442.559 310.468 442.234 315.255 441.586C357.518 435.794 390.395 404.906 416.835 380.024C431.755 365.997 444.65 353.881 456.936 347.745C463.088 347.859 476.268 351.009 479.737 355.462C494.148 373.914 521.137 384.933 550.112 384.2C574.565 383.579 594.832 374.623 605.781 359.636C606.024 359.475 606.246 359.267 606.438 359.015C610.105 354.081 619.973 351.603 630.43 352.969C639.277 354.132 646.227 357.813 648.545 362.568C655.328 376.483 668.577 383.922 683.113 381.91C699.823 379.581 713.66 365.921 719.155 346.252L715.851 344.722C709.837 366.224 694.798 375.75 682.729 377.419C669.549 379.254 657.588 372.639 651.513 360.178C648.564 354.172 640.849 349.807 630.785 348.478C621.192 347.214 609.269 348.971 604.061 355.689C603.8 355.85 603.569 356.073 603.373 356.347C593.25 370.374 573.316 379.115 550.041 379.684C549.187 379.684 548.342 379.684 547.487 379.684C520.763 379.684 495.346 369.047 482.215 352.222C477.654 346.379 462.911 343.192 456.66 343.192H456.336L456.041 343.343C443.264 349.668 430.063 362.014 414.76 376.344C387.31 402.147 356.191 431.406 314.881 437.058C266.651 443.661 214.962 416.022 156.856 352.551C150.251 345.342 129.336 344.822 122.082 351.615C121.928 351.703 121.784 351.813 121.65 351.945C120.471 353.121 115.585 353.006 114.495 351.791C108.597 345.191 78.1279 331.225 67.5424 340.687C62.8639 344.873 47.4232 346.391 41.2507 344.191C38.5355 343.529 35.7782 343.194 33.0144 343.192H0.0883789V347.745H33.0144C35.4624 347.749 37.9064 348.023 40.3178 348.568Z" fill="#D8D1FF"/>
<path d="M40.0919 369.68C46.4216 371.943 63.5821 370.792 69.3025 365.67C77.2341 358.561 106.308 370.007 111.723 376.041C113.994 378.573 120.569 378.812 123.223 376.547C123.387 376.454 123.542 376.334 123.685 376.192C129.09 370.867 148.915 371.273 153.986 376.813C205.096 432.684 252.441 460.068 298.037 460.068C303.395 460.068 308.75 459.687 314.076 458.93C357.213 452.793 391.3 422.601 418.684 398.355C433.083 385.591 445.534 374.562 456.877 368.895C462.95 369.008 476.278 372.07 479.482 376.244C493.243 393.799 520.841 404.679 549.964 403.946C574.703 403.313 594.91 394.699 605.466 380.291C605.723 380.134 605.954 379.919 606.154 379.66C609.634 374.978 619.776 372.576 630.264 373.954C639.052 375.105 645.863 378.585 648.026 383.049C654.64 396.634 668.055 403.78 683.054 401.705C690.796 400.669 698.211 397.155 704.628 391.485C711.327 385.581 716.423 377.131 719.205 367.314L715.706 365.694C709.994 386.148 694.888 395.256 682.652 396.949C669.098 398.833 657.028 392.536 651.199 380.506C647.15 372.197 635.474 369.831 630.668 369.198C620.84 367.933 608.808 369.565 603.678 376.117C603.402 376.28 603.154 376.508 602.941 376.789C593.27 390.195 573.455 398.57 549.915 399.163C521.775 399.872 495.149 389.55 482.096 372.854C477.37 366.796 461.653 364.113 456.473 364.113H456.139L455.814 364.265C444.02 370.083 431.243 381.354 416.5 394.408C389.462 418.364 355.81 448.177 313.594 454.186C264.117 461.219 212.675 434.72 156.336 373.169C149.898 366.124 128.648 365.582 121.561 372.221C121.401 372.314 121.249 372.427 121.109 372.563C120.048 373.614 115.085 373.512 114.102 372.436C110.878 368.832 101.669 364.125 92.2136 361.242C85.3827 359.155 73.0374 356.45 67.1304 361.748C62.7664 365.657 46.9719 367.199 41.0355 365.076C38.3185 364.431 35.5616 364.111 32.7991 364.113H0.0400391V368.895H32.8384C35.269 368.895 37.6951 369.159 40.0919 369.68Z" fill="#D8D1FF"/>
<path d="M39.866 390.751C46.0778 392.977 63.5032 391.851 69.0565 386.88C76.7129 380.023 106.406 391.433 111.252 396.821C113.473 399.351 120.176 399.541 122.81 397.339C122.989 397.247 123.157 397.122 123.311 396.973C128.54 391.826 148.492 392.217 153.377 397.555C208.064 457.284 255.065 477.572 295.372 477.572C347.758 477.572 388.833 443.282 420.698 416.682C434.457 405.169 446.409 395.177 456.818 390.016C462.823 390.13 476.288 393.117 479.326 397C492.544 413.935 520.271 424.396 549.935 423.651C574.585 423.03 595.216 414.543 605.24 400.883C605.51 400.724 605.755 400.502 605.958 400.225C609.319 395.709 619.531 393.444 630.226 394.849C638.922 395.988 645.587 399.29 647.612 403.437C654.051 416.667 667.652 423.561 683.122 421.41C690.876 420.403 698.329 417.014 704.855 411.533C711.511 406.002 716.598 397.845 719.351 388.283L715.656 386.577C712.107 399.226 701.591 413.771 682.701 416.403C668.744 418.324 656.567 412.342 650.935 400.756C647.002 392.787 635.434 390.46 630.619 389.827C620.623 388.562 608.406 390.067 603.343 396.455C603.056 396.623 602.796 396.858 602.576 397.151C593.348 409.952 573.641 417.945 549.856 418.553C521.196 419.287 494.598 409.394 482.096 393.368C477.516 387.513 461.702 384.906 456.463 384.906H456.101L455.766 385.072C444.886 390.421 432.689 400.604 418.566 412.393C390.582 435.755 355.77 464.823 312.582 471.172C288.886 474.649 265.59 471.057 241.374 460.18C213.686 447.734 184.937 425.345 155.923 393.659C149.8 386.981 127.96 386.45 121.139 392.723C120.965 392.809 120.802 392.929 120.657 393.078C119.615 394.038 114.819 393.95 113.777 392.951C107.604 386.071 76.3402 374.117 66.7769 382.68C62.688 386.335 46.5193 387.868 40.8777 385.842C38.1614 385.228 35.409 384.913 32.651 384.906H0.0493164V389.967H32.651C35.0679 389.981 37.481 390.245 39.866 390.751Z" fill="#D8D1FF"/>
<path d="M39.6393 411.887C45.6939 414.049 63.602 412.798 68.8211 408.091C71.8484 405.386 80.1923 405.486 90.5911 408.382C100.42 411.102 108.696 415.288 110.779 417.617C112.863 419.944 119.763 420.298 122.407 418.16C122.598 418.057 122.779 417.925 122.947 417.769C127.861 412.937 148.197 413.316 152.778 418.314C181.281 449.442 210.038 471.35 238.286 483.417C255.866 491.022 274.281 494.934 292.826 495.003C299.288 495 305.744 494.509 312.16 493.534C357.302 486.704 393.738 458.119 422.927 435.073C435.989 424.789 447.303 415.885 456.778 411.141C462.912 411.268 476.358 414.215 479.139 417.769C491.414 433.516 517.677 443.42 546.662 443.42H549.895C574.792 442.788 595.343 434.655 604.985 421.627C605.265 421.459 605.517 421.229 605.732 420.943C608.916 416.657 619.423 414.492 630.176 415.885C638.649 416.984 645.312 420.159 647.159 423.954C653.431 436.842 667.24 443.472 683.193 441.258C690.951 440.266 698.431 437.003 705.06 431.72C711.66 426.551 716.732 418.695 719.469 409.394L715.538 407.598C712.196 419.577 701.777 433.325 682.71 435.97C668.556 437.932 655.957 432.113 650.619 421.134C646.903 413.543 635.354 411.217 630.56 410.584C620.347 409.242 607.953 410.696 602.959 416.908C602.663 417.084 602.394 417.329 602.164 417.629C593.378 429.824 573.789 437.45 549.768 438.056C521.048 438.79 493.803 429.127 482.009 414.025C477.546 408.307 461.005 405.853 456.366 405.853H455.981L455.628 406.031C445.721 410.887 434.144 419.944 420.726 430.557C391.841 453.325 355.857 481.582 311.628 488.285C287.328 491.875 262.711 488.495 239.545 478.395C211.818 466.543 183.521 444.977 155.421 414.291C149.524 407.788 127.341 407.258 120.638 413.355C120.464 413.448 120.299 413.568 120.146 413.707C119.085 414.582 114.445 414.492 113.452 413.619C110.081 409.824 99.8304 405.55 91.4367 403.209C84.478 401.273 71.9855 398.783 66.4224 403.754C62.6089 407.182 46.0767 408.673 40.7202 406.752C38.0057 406.156 35.2577 405.855 32.5039 405.853H0.0693359V411.166H32.5039C34.8933 411.173 37.2785 411.412 39.6393 411.887Z" fill="#D8D1FF"/>
<path d="M39.4135 432.986C44.7604 434.906 63.2285 434.161 68.5751 429.366C71.4451 426.837 79.7209 426.913 90.1982 429.684C100.115 432.314 108.362 436.272 110.308 438.45C112.44 440.828 119.32 441.091 121.994 439.031C122.204 438.924 122.401 438.785 122.583 438.614C127.163 434.098 147.912 434.464 152.187 439.132C202.382 493.952 248.715 512.585 289.867 512.57C345.703 512.57 391.987 478.256 425.336 453.54C437.563 444.456 448.157 436.602 456.71 432.326C462.763 432.453 476.367 435.3 478.911 438.653C490.705 453.767 516.919 463.266 546.356 463.266C547.506 463.266 548.667 463.266 549.836 463.266C574.977 462.633 595.432 454.842 604.701 442.409C604.995 442.24 605.261 441.998 605.487 441.7C608.504 437.653 619.326 435.578 630.126 436.993C638.481 438.095 644.977 441.067 646.677 444.584C652.683 456.929 667.054 463.442 683.28 461.191C691.031 460.219 698.526 457.081 705.236 451.995C712.226 446.531 717.169 439.144 719.558 430.605L715.469 428.709C711.537 442.875 698.701 453.437 682.818 455.639C668.222 457.662 655.484 452.159 650.384 441.624C646.835 434.325 635.365 432.086 630.597 431.505C620.503 430.239 607.598 431.505 602.665 437.538C602.348 437.714 602.065 437.973 601.829 438.298C593.486 449.857 574.024 457.132 549.738 457.75C520.497 458.483 493.252 449.275 481.919 434.818C477.36 428.975 459.697 426.913 456.258 426.913H455.865L455.491 427.104C446.536 431.493 435.685 439.549 423.105 448.872C394.888 469.793 356.271 498.455 310.87 505.501C286.299 509.337 261.372 506.344 237.775 496.723C209.97 485.465 182.096 464.72 154.929 435.046C149.15 428.721 126.771 428.203 120.146 434.098C119.972 434.198 119.808 434.32 119.654 434.464C118.672 435.236 114.092 435.161 113.059 434.364C107.614 428.406 75.1798 416.781 66.0489 424.953C62.4024 428.228 45.7527 429.657 40.4944 427.785C37.7786 427.206 35.0302 426.913 32.2772 426.913H0V432.504H32.2772C34.6616 432.448 37.0468 432.607 39.4135 432.986Z" fill="#D8D1FF"/>
<path d="M39.1969 454.094C44.4257 455.969 63.1499 455.233 68.3297 450.593C74.7577 444.838 105.561 454.5 109.826 459.256C111.91 461.57 118.888 461.848 121.62 459.864C121.844 459.752 122.056 459.603 122.249 459.422C126.515 455.209 147.646 455.563 151.617 459.901C178.341 489.081 206.362 509.408 234.906 520.288C251.922 526.771 269.576 530.05 287.323 530.026C295.243 530.026 303.158 529.395 311.019 528.142C358.462 520.552 398.671 492.51 428.029 471.995C439.294 464.114 449.054 457.296 456.701 453.476C462.665 453.603 476.356 456.335 478.745 459.383C492.132 476.523 524.084 483.541 549.837 482.896C575.213 482.251 595.56 474.815 604.463 462.963C604.773 462.794 605.05 462.542 605.28 462.23C608.13 458.435 619.296 456.436 630.167 457.865C638.374 458.94 644.682 461.66 646.244 464.923C652.142 476.926 666.699 483.175 683.457 480.861C691.195 479.898 698.695 476.882 705.484 472.007C712.502 466.758 717.416 459.686 719.695 451.529L715.409 449.554C711.714 462.811 698.976 472.816 682.974 475.042C668.163 477.09 654.964 471.78 650.109 461.824C646.846 455.106 636.505 452.819 630.638 452.047C620.317 450.693 607.236 451.932 602.331 457.777C601.999 457.951 601.701 458.219 601.457 458.562C593.672 469.351 573.857 476.433 549.757 477.041C519.967 477.799 492.751 469.033 481.938 455.233C477.546 449.605 459.756 447.645 456.268 447.645H455.854L455.461 447.834C447.482 451.756 437.455 458.762 425.848 466.807C396.814 487.109 357.048 514.872 310.449 522.299C285.549 526.375 260.26 523.765 236.182 514.633C208.259 503.983 180.789 484.062 154.556 455.399C148.934 449.263 126.289 448.745 119.773 454.463C119.592 454.554 119.42 454.671 119.261 454.815C117.132 455.497 114.902 455.465 112.784 454.727C109.62 451.301 99.3094 447.328 90.6996 445.165C83.6131 443.396 70.9632 441.106 65.7738 445.759C62.3828 448.796 45.399 450.187 40.4553 448.415C38.5682 447.746 32.976 447.582 32.2488 447.582H0.12793V453.425H32.2488C34.5739 453.452 36.8946 453.677 39.1969 454.094Z" fill="#D8D1FF"/>
<path d="M38.9715 475.196C44.0823 477.031 63.0813 476.322 68.0841 471.831C69.991 470.125 76.7137 469.201 89.3829 472.224C100.116 474.753 107.88 478.409 109.354 480.054C111.389 482.317 118.426 482.583 121.148 480.699C121.397 480.586 121.629 480.425 121.837 480.217C125.925 476.195 147.175 476.525 150.979 480.672C176.819 508.904 204.515 528.422 233.304 538.693C249.987 544.612 267.216 547.591 284.522 547.547C293.302 547.535 302.073 546.816 310.784 545.396C332.406 541.892 354.433 534.292 378.247 522.149C398.513 511.827 416.481 499.999 430.908 490.525C441.082 483.834 449.889 478.03 456.602 474.677C462.5 474.805 476.318 477.422 478.5 480.217C491.277 496.661 523.554 503.34 549.787 502.683C575.342 502.037 595.619 494.953 604.148 483.709C604.473 483.536 604.764 483.277 605.005 482.95C607.688 479.333 619.206 477.485 630.146 478.927C639.306 480.129 644.575 483.089 645.745 485.479C651.415 497.143 666.278 503.113 683.605 500.657C705.326 497.648 716.52 484.215 719.744 472.615L715.272 470.54C711.076 485.569 695.321 492.878 683.094 494.574C667.801 496.698 654.413 491.715 649.775 482.177C646.658 475.789 636.446 473.551 630.628 472.793C620.072 471.4 606.794 472.539 601.938 478.206C601.568 478.385 601.232 478.666 600.954 479.027C593.613 489.21 573.956 495.928 549.651 496.546C519.791 497.294 491.896 488.792 481.832 475.853C477.36 470.11 458.184 468.517 456.15 468.517H455.708L455.296 468.72C448.296 472.16 439.225 478.13 428.757 485.049C370.67 523.313 262.544 594.525 154.065 476.044C150.222 471.843 139.696 471.364 136.56 471.325C133.425 471.288 123.528 471.427 119.282 475.12C119.1 475.213 118.927 475.337 118.77 475.486C116.668 476.105 114.482 476.07 112.392 475.386C109.188 471.97 98.7194 468.277 90.2668 466.266C81.5489 464.191 70.148 462.61 65.3909 466.872C62.2358 469.692 44.8977 471.034 40.2586 469.401C38.4797 468.771 32.7789 468.593 32.0712 468.593H0.108887V474.714H32.0712C34.3766 474.692 36.6815 474.853 38.9715 475.196Z" fill="#D8D1FF"/>
<path d="M38.7361 496.308C43.6504 498.053 63.1213 497.293 67.839 493.07C69.8047 491.338 77.0484 490.805 88.9803 493.488C99.6837 495.89 107.537 499.383 108.874 500.861C110.839 503.063 117.906 503.39 120.668 501.545C120.946 501.433 121.205 501.257 121.434 501.025C125.218 497.296 146.841 497.611 150.35 501.455C175.315 528.727 202.738 547.448 231.85 557.111C248.148 562.453 264.904 565.116 281.72 565.043C291.48 565.028 301.231 564.212 310.911 562.602C361.116 554.315 405.04 527.031 434.114 508.981C443.018 503.454 450.733 498.662 456.513 495.776C462.411 495.915 476.338 498.495 478.253 500.964C490.541 516.699 523.025 523.06 549.778 522.39C575.548 521.733 595.669 514.991 603.836 504.326C604.174 504.145 604.479 503.874 604.73 503.53C606.982 500.507 617.988 498.256 630.186 499.849C639.13 501.025 644.192 503.732 645.244 505.883C648.104 511.777 653.598 516.217 661.108 518.722C668.542 520.997 676.23 521.576 683.822 520.43C698.162 518.444 715.155 510.311 719.815 493.664L715.146 491.502C711.942 502.975 699.419 511.841 683.29 514.079C667.733 516.242 653.805 511.474 649.45 502.493C646.64 496.726 637.656 494.424 630.688 493.501C622.902 492.474 607.098 492.235 601.555 498.559C601.185 498.747 600.849 499.038 600.573 499.407C593.692 508.994 574.162 515.333 549.67 515.951C519.269 516.723 491.346 508.678 481.753 496.384C477.448 490.869 458.106 489.339 456.052 489.339H455.59L455.167 489.542C449.153 492.501 441.18 497.447 431.942 503.19C403.162 521.049 359.671 548.054 310.271 556.214C283.193 560.679 257.198 558.882 233.078 550.874C204.703 541.464 177.939 523.187 153.544 496.548C149.947 492.601 140.099 492.059 136.03 491.995C132.964 491.995 122.899 492.095 118.771 495.587C118.593 495.68 118.422 495.795 118.26 495.927C116.183 496.487 114.037 496.46 111.969 495.854C106.327 490.035 72.8811 480.673 64.9787 487.782C62.0302 490.402 44.3383 491.665 40.0433 490.123C38.2054 489.451 31.9244 489.339 31.8656 489.339H0.0605469V495.739H31.8559C34.156 495.756 36.4533 495.947 38.7361 496.308Z" fill="#D8D1FF"/>
<path d="M38.5184 517.418C43.2952 519.124 63.09 518.366 67.6014 514.293C69.4 512.687 76.5844 512.206 88.5851 514.75C99.0036 516.961 107.152 520.263 108.41 521.668C110.375 523.87 117.472 524.197 120.273 522.377C120.564 522.254 120.837 522.071 121.079 521.832C122.16 520.769 127.349 519.302 135.517 519.429C143.685 519.554 148.757 521.123 149.759 522.225C186.479 562.322 229.862 582.522 279.066 582.522C289.912 582.497 300.747 581.564 311.498 579.726C334.342 575.931 357.861 568.343 383.426 556.54C404.921 546.65 423.851 535.568 437.671 527.447C445.13 523.085 451.607 519.29 456.422 516.886C462.242 517.013 476.082 519.417 478.047 521.705C489.782 536.746 522.551 542.779 549.796 542.083C575.714 541.425 595.707 535.038 603.54 524.957C603.887 524.764 604.201 524.486 604.463 524.134C606.616 521.25 618.104 519.202 630.272 520.808C640.239 522.074 644.102 524.982 644.751 526.309C650.835 538.806 668.901 542.273 684.065 540.16C698.483 538.163 715.45 530.421 719.842 514.674L714.977 512.433C712.028 523.009 699.674 531.306 683.526 533.544C667.682 535.746 653.203 531.218 649.124 522.78C646.462 517.316 637.683 515.089 630.794 514.18C621.526 512.914 606.31 513.293 601.179 518.972C600.805 519.175 600.469 519.481 600.198 519.872C593.721 528.84 574.379 534.81 549.727 535.429C518.757 536.213 490.756 528.637 481.704 516.988C477.32 511.373 456.149 510.221 455.991 510.221H455.519L455.067 510.449C450.065 512.902 443.351 516.773 435.567 521.389C408.047 537.53 361.921 564.521 310.87 573.111C282.789 577.83 256.194 576.449 231.82 569.013C203.071 560.235 176.582 542.779 153.101 517.152C148.187 511.739 124.598 511.206 118.347 516.177C118.167 516.267 117.996 516.382 117.836 516.519C115.775 517.013 113.658 516.988 111.604 516.443C108.085 512.89 95.6231 509.501 89.4212 508.183C80.5754 506.299 69.0457 504.882 64.6325 508.829C61.9592 511.233 43.9925 512.46 39.8939 511.006C38.1247 510.361 31.7859 510.246 31.717 510.246H0.078125V516.912H31.717C33.9896 516.922 36.2601 517.091 38.5184 517.418Z" fill="#D8D1FF"/>
<path d="M38.2926 538.516C42.4305 539.995 62.7369 539.667 67.3564 535.53C68.9585 534.088 76.1137 533.619 87.9967 535.984C98.4445 538.047 106.671 541.158 107.9 542.46C109.865 544.611 116.942 544.928 119.792 543.22C120.11 543.091 120.409 542.895 120.677 542.639C121.66 541.69 126.849 540.337 134.977 540.425C143.106 540.513 148.226 542.018 149.121 542.954C183.855 580.902 226.473 600 276.176 600C288.422 599.959 300.653 598.876 312.789 596.762C366.434 587.567 413.552 561.497 441.701 545.928C447.519 542.702 452.582 539.907 456.376 538.022C462.017 538.147 475.885 540.425 477.822 542.475C489.006 556.805 522.05 562.523 549.875 561.815C575.931 561.143 595.776 555.111 603.256 545.622C603.626 545.427 603.96 545.136 604.237 544.765C606.254 542.057 618.135 540.158 630.44 541.778C639.395 542.954 643.631 545.407 644.29 546.837C650.186 558.955 668.744 562.169 684.509 559.979C698.967 557.968 715.882 550.569 720 535.782L714.938 533.443C712.236 543.144 700.058 550.859 683.939 553.1C667.516 555.375 652.761 551.201 648.85 543.157C646.825 539.007 640.821 536.251 630.991 534.96C621.496 533.695 606.007 533.937 600.867 539.425C600.455 539.626 600.085 539.946 599.786 540.361C593.75 548.736 574.585 554.276 549.778 554.945C518.739 555.742 490.068 548.457 481.625 537.629C477.419 532.253 456.07 531.153 455.893 531.153H455.402L454.94 531.38C451.01 533.316 445.712 536.239 439.588 539.628C411.693 555.06 364.998 580.888 312.08 589.959C248.046 600.936 194.382 583.368 152.611 537.744C147.844 532.541 124.181 531.993 117.944 536.708C117.89 536.75 117.834 536.783 117.774 536.816C117.702 536.854 117.631 536.897 117.563 536.944C117.434 537.031 117.295 537.104 117.143 537.135C115.254 537.514 113.33 537.493 111.447 537.071C111.28 537.033 111.131 536.949 111.003 536.835C107.331 533.549 95.5845 530.509 88.989 529.193C80.0449 527.409 68.4863 526.082 64.26 529.875C61.6555 532.14 43.5609 533.252 39.6883 531.874C37.9584 531.256 31.5801 531.153 31.5211 531.153H0.0693359V538.071H31.5211C33.1822 538.047 37.5063 538.286 38.2926 538.516Z" fill="#D8D1FF"/>
</g>
</g>
<defs>
<clipPath id="clip0_263_650">
<rect width="371" height="600" fill="white"/>
</clipPath>
</defs>
</svg>
