<svg width="407" height="222" viewBox="0 0 407 222" fill="none" xmlns="http://www.w3.org/2000/svg">
<path d="M24.8129 6.19097C27.6196 7.23168 30.5695 7.45617 33.4511 6.84842C36.3327 6.24068 39.0747 4.81583 41.4806 2.67575C45.1809 -0.659841 49.9812 -0.695905 55.7427 2.55342C60.4875 5.23483 64.8547 9.56257 67.6771 12.7328C68.4517 13.604 69.4351 14.1014 70.461 14.1407C71.487 14.18 72.4921 13.7589 73.3052 12.9485L73.4604 12.7904C76.2581 10.0251 79.7034 8.58189 83.2229 8.7009C86.7423 8.81991 90.124 10.4939 92.8062 13.4445C121.553 45.0103 144.394 66.4689 162.639 79.0492C175.612 87.992 186.262 92.406 194.963 92.406C196.984 92.4161 199.001 92.1535 200.981 91.6224C214.87 87.7979 221.231 70.5449 227.999 52.2854C231.477 42.8897 235.077 33.1705 239.855 24.8028C245.25 15.3496 251.445 8.98751 258.784 5.39312C261.435 5.39227 264.061 6.06867 266.509 7.38372C268.958 8.69878 271.181 10.6265 273.051 13.0563C279.791 21.7402 286.486 28.3108 292.964 32.5952C299.442 36.8798 306.031 39.0652 312.315 38.8855C318.06 38.6752 323.685 36.7226 328.739 33.1848C334.134 29.5114 339.501 23.9832 344.69 16.7443L344.973 16.3632C346.687 14.0332 348.792 12.2444 351.126 11.135C353.459 10.0256 355.958 9.62529 358.43 9.96508C360.949 10.2896 363.376 11.3587 365.526 13.09C367.675 14.8213 369.488 17.1686 370.826 19.9504C373.753 25.9961 376.642 30.489 379.42 33.3142C382.198 36.1393 384.899 37.3544 387.516 36.995C390.754 36.5421 393.927 33.6162 396.961 28.2965C399.994 22.9767 402.844 15.3567 405.616 5.34995L405.522 5.30677C402.744 15.2776 399.844 22.9841 396.877 28.2174C393.91 33.4509 390.726 36.4126 387.516 36.844C384.932 37.2034 382.231 35.974 379.492 33.192C376.753 30.41 373.842 25.8882 370.925 19.8568C369.582 17.0538 367.758 14.6884 365.595 12.9433C363.432 11.1981 360.988 10.12 358.452 9.79255C355.964 9.45177 353.45 9.8547 351.101 10.9702C348.752 12.0857 346.634 13.8839 344.906 16.2265L344.628 16.6147C339.445 23.8394 334.073 29.3604 328.706 33.0267C323.666 36.5565 318.056 38.502 312.327 38.7058C306.054 38.871 299.548 36.7576 293.02 32.43C286.491 28.1023 279.863 21.5894 273.135 12.9269C271.254 10.4816 269.018 8.54184 266.554 7.21928C264.092 5.8967 261.451 5.2175 258.784 5.22059C251.423 8.81498 245.211 15.2272 239.8 24.7092C235.016 33.0913 231.416 42.8105 227.932 52.2134C221.182 70.4442 214.804 87.6686 200.986 91.4786C191.351 94.1384 178.829 90.0409 162.716 78.9198C144.476 66.3467 121.641 44.8882 92.9007 13.3295C90.2023 10.3701 86.804 8.69129 83.2679 8.57103C79.7318 8.45076 76.2698 9.89611 73.4549 12.6681L73.2992 12.8262C72.5035 13.6144 71.5225 14.0241 70.5207 13.9861C69.519 13.9481 68.5579 13.4648 67.7991 12.6177C64.9711 9.44744 60.5763 5.10547 55.8371 2.41688C50.0422 -0.854016 45.2088 -0.803729 41.4753 2.56061C39.0779 4.69244 36.3453 6.11079 33.474 6.71364C30.6025 7.31647 27.6635 7.08889 24.8682 6.04724C23.3268 5.49352 21.7346 5.21305 20.1348 5.2134H0.078125V5.34274H20.1348C21.7166 5.35084 23.2903 5.63614 24.8129 6.19097Z" fill="#D8D1FF"/>
<path d="M24.674 18.182C27.4781 19.2127 30.4225 19.4391 33.3014 18.8456C36.1802 18.2522 38.924 16.853 41.3417 14.7457C50.4758 6.52182 64.6766 21.4744 67.4101 24.5511C68.1987 25.4145 69.1903 25.9061 70.2228 25.9453C71.2553 25.9844 72.2679 25.5689 73.0942 24.7668L73.2493 24.6159C76.0469 21.9284 79.4597 20.5306 82.9429 20.6453C86.4261 20.7599 89.7789 22.3804 92.4672 25.2485C120.425 55.9517 142.804 76.8637 160.888 89.1852C173.834 98.0059 184.546 102.348 193.396 102.348C195.392 102.36 197.383 102.119 199.342 101.629C213.842 97.934 220.764 80.6524 228.099 62.3497C235.432 44.0471 242.989 25.1695 258.751 17.3768C264.046 17.402 269.128 20.0757 272.936 24.8386C285.936 41.5885 298.909 50.0785 311.499 50.0713H312.21C323.584 49.7838 334.468 42.5015 344.551 28.4402L344.718 28.2247L344.835 28.0666C346.586 25.7963 348.708 24.0614 351.045 22.9888C353.381 21.9162 355.873 21.5329 358.34 21.8672C360.806 22.2013 363.182 23.2445 365.297 24.9204C367.41 26.5962 369.208 28.8624 370.558 31.553C376.281 43.3713 381.943 48.9785 387.387 48.2237C394.055 47.2891 400.222 36.8798 405.662 17.312L405.455 17.2187C400.05 36.7003 393.96 47.0448 387.359 47.9651C382.004 48.684 376.42 43.1413 370.747 31.4308C369.379 28.7031 367.557 26.4057 365.414 24.7068C363.271 23.008 360.861 21.9507 358.361 21.6123C355.862 21.2739 353.336 21.663 350.967 22.7512C348.599 23.8394 346.448 25.5988 344.674 27.9011L344.557 28.0522L344.396 28.2749C334.345 42.2858 323.517 49.5321 312.21 49.8411H311.499C298.971 49.8411 286.047 41.38 273.091 24.6804C269.237 19.8592 264.089 17.1565 258.728 17.1395H258.689C242.839 24.9681 235.243 43.9248 227.905 62.2562C220.565 80.5875 213.697 97.7184 199.302 101.392C189.469 103.894 176.934 99.832 160.966 88.9698C142.898 76.6626 120.531 55.7575 92.5844 25.0688C89.859 22.16 86.4589 20.5165 82.9272 20.4006C79.3954 20.2846 75.9354 21.7029 73.0995 24.4291L72.9384 24.5799C72.1522 25.3422 71.1891 25.7367 70.2071 25.6988C69.2251 25.661 68.282 25.1929 67.5323 24.3714C65.7377 22.373 60.9932 17.3841 55.5539 14.408C49.698 11.1945 44.8644 11.2448 41.1975 14.5517C36.6249 18.6637 30.3021 19.9647 24.6962 17.9448C23.155 17.4038 21.5651 17.1307 19.9683 17.1323H0V17.4127H19.9683C21.5564 17.3961 23.1389 17.6548 24.674 18.182Z" fill="#D8D1FF"/>
<path d="M24.5573 30.1796C30.1743 32.1996 36.7192 30.8983 41.2251 26.8151C48.8422 19.9571 61.1155 29.5972 67.166 36.3762C67.9678 37.2335 68.9676 37.7199 70.0074 37.7577C71.0471 37.7955 72.067 37.3825 72.9048 36.5847L73.0659 36.441C78.5218 31.0279 86.906 31.3009 92.1508 37.0591C119.314 66.8854 141.226 87.2512 159.132 99.3067C172.067 108.005 182.84 112.297 191.858 112.297C193.814 112.306 195.766 112.087 197.691 111.643C212.859 108.099 220.337 90.7953 228.249 72.4424C235.799 54.9593 243.605 36.8795 258.728 29.396C263.962 29.396 269.363 32.1853 272.83 36.6495C285.359 52.7882 298.675 61.2926 311.393 61.2926H312.121C323.711 60.9979 334.584 53.8881 344.429 40.1647L344.574 39.9705C344.618 39.913 344.667 39.8555 344.707 39.798C348.04 35.2836 352.93 33.0839 358.113 33.7668C363.297 34.4497 367.742 37.8859 370.308 43.1839C375.57 54.0606 380.909 59.5528 386.204 59.5528C386.56 59.5539 386.916 59.53 387.271 59.481C394.121 58.5249 400.505 48.0724 405.727 29.2882L405.411 29.1372C400.232 47.7849 393.949 58.1367 387.231 59.0783C381.737 59.8476 376.12 54.4274 370.564 42.9828C367.941 37.5696 363.402 34.0615 358.119 33.3642C352.836 32.6668 347.845 34.9098 344.439 39.525L344.312 39.6903L344.151 39.8989C334.372 53.5575 323.594 60.5952 312.087 60.8827C299.231 61.2134 285.736 52.7378 273.035 36.3762C269.502 31.8258 264.002 28.9933 258.673 28.9933H258.612C243.355 36.5272 235.511 54.6861 227.927 72.2483C220.048 90.4933 212.603 107.732 197.591 111.24C176.534 116.157 143.087 92.4917 92.3282 36.7501C86.9667 30.8625 78.3999 30.5822 72.8217 36.1176L72.666 36.2613C71.889 37.001 70.9435 37.3837 69.9791 37.3485C69.0149 37.3134 68.0869 36.8624 67.3434 36.0672C61.2318 29.209 48.781 19.4682 40.9972 26.4773C36.5524 30.4743 30.1242 31.7683 24.6072 29.7841C23.0648 29.2515 21.4756 28.9808 19.8792 28.9789H0.00537109V29.4175H19.8792C21.4577 29.4032 23.0307 29.6594 24.5573 30.1796Z" fill="#D8D1FF"/>
<path d="M24.4353 42.1718C29.9912 44.1774 36.6862 42.8905 41.1031 38.8793C49.0537 31.6904 62.4263 43.1925 66.91 48.2247C67.7245 49.0793 68.7341 49.5634 69.7824 49.6024C70.8305 49.6413 71.8594 49.233 72.7106 48.4404L72.7774 48.3758L72.8663 48.2894C78.1111 43.0919 86.7891 43.3723 91.8173 48.8933C137.159 98.6827 168.756 122.262 190.38 122.262C192.255 122.27 194.128 122.08 195.98 121.694C211.853 118.315 219.915 100.961 228.454 82.5869C236.233 65.8874 244.233 48.6201 258.717 41.4385C263.923 41.4385 269.418 44.2206 272.73 48.4907C284.952 64.2413 298.287 72.5443 311.265 72.5443H312.044C323.711 72.2424 334.822 65.1112 344.312 51.9125L344.596 51.5603C347.801 47.2471 352.808 45.0328 357.975 45.7157C363.141 46.3988 367.619 49.8062 370.064 54.8527C375.492 66.0671 381.409 71.5738 387.165 70.7686C394.277 69.7766 400.722 59.5685 405.805 41.2515L405.377 41.0575C400.377 59.1444 394.043 69.223 387.121 70.1863C381.565 70.9627 375.782 65.5496 370.453 54.5365C367.936 49.339 363.292 45.8238 358.024 45.1264C352.757 44.4291 347.579 46.6792 344.273 51.1577L344.145 51.3086L343.984 51.5171C334.606 64.5935 323.556 71.6456 312.038 71.9547H311.271C298.392 71.9547 285.197 63.7165 273.057 48.0737C269.651 43.6886 264.012 40.8849 258.684 40.8849H258.6C243.944 48.124 235.871 65.4994 228.043 82.2994C219.559 100.552 211.554 117.798 195.885 121.119C174.384 125.691 141.399 102.601 92.0896 48.4547C86.8226 42.7037 78.0611 42.3875 72.5662 47.8366L72.4941 47.9012L72.4106 47.9804C71.6396 48.6813 70.7145 49.0416 69.7726 49.008C68.8307 48.9743 67.9222 48.5484 67.1823 47.7935C63.585 43.8341 59.5322 40.6252 55.1703 38.2827C49.27 35.2419 44.3084 35.2921 40.8194 38.4337C36.5135 42.3155 29.9742 43.6023 24.5405 41.647C22.9989 41.1246 21.4117 40.8611 19.818 40.8634H0.0336914V41.4457H19.818C21.3746 41.4332 22.9264 41.6771 24.4353 42.1718Z" fill="#D8D1FF"/>
<path d="M24.3075 54.1692C29.8079 56.1461 36.6528 54.8234 40.9753 50.9487C48.3369 44.3206 61.4544 54.1981 66.6492 60.021C67.4849 60.8499 68.5017 61.3162 69.5542 61.3536C70.6067 61.3911 71.6411 60.9976 72.5107 60.2295L72.5774 60.172L72.6664 60.0856C77.789 55.0103 86.5561 55.2835 91.4898 60.6679C135.693 109.214 166.878 132.182 188.802 132.182C190.615 132.188 192.426 132.02 194.219 131.678C210.837 128.494 219.51 111.104 228.666 92.6866C236.606 76.7636 244.812 60.3013 258.668 53.4288C263.835 53.4288 269.424 56.1893 272.591 60.2725C284.52 75.6421 297.81 83.7367 311.087 83.7367H311.921C323.778 83.4348 334.929 76.4761 344.146 63.6081L344.279 63.4501C344.329 63.3854 344.384 63.3279 344.429 63.2631C347.562 59.0217 352.557 56.9082 357.763 57.5983C362.969 58.2884 367.392 61.5882 369.747 66.4548C374.715 76.7133 380.237 82.0833 385.799 82.0833C386.2 82.0832 386.601 82.0543 386.999 81.9969C394.255 80.9833 400.939 70.7538 405.811 53.1916L405.255 52.9399C400.461 70.1931 393.949 80.2574 386.921 81.2639C381.198 82.0618 375.415 76.8066 370.214 66.0667C367.77 61.0346 363.13 57.5695 357.808 56.865C352.485 56.1606 347.252 58.3533 343.979 62.7527C343.941 62.8044 343.9 62.8524 343.857 62.8965C343.796 62.9684 343.74 63.0331 343.691 63.1049C334.573 75.8147 323.567 82.6943 311.866 82.9891C298.482 83.3341 285.014 75.297 272.975 59.7549C269.696 55.5352 263.913 52.6955 258.59 52.6955H258.49C244.422 59.6399 236.15 76.2243 228.155 92.2697C219.048 110.536 210.443 127.789 194.08 130.931C172.14 135.129 139.632 112.621 91.8012 60.0856C86.712 54.4927 77.578 54.2124 72.2611 59.4818L72.1997 59.532L72.1054 59.6184C71.3459 60.2982 70.4388 60.6472 69.5157 60.6149C68.5926 60.5827 67.7014 60.1706 66.9715 59.4387C63.3669 55.541 59.3071 52.4084 54.9432 50.1581C48.9817 47.1819 44.0147 47.2394 40.5923 50.3234C36.4865 54.0184 29.6858 55.3554 24.4187 53.4359C22.8795 52.9241 21.2962 52.6658 19.7071 52.6669H0.0117188V53.3858H19.7071C21.2601 53.3923 22.8062 53.6556 24.3075 54.1692Z" fill="#D8D1FF"/>
<path d="M24.1796 66.1597C29.5355 68.0935 36.6856 66.7347 40.8193 63.0181C48.292 56.2894 62.1596 67.1301 66.3765 71.8459C67.2231 72.6746 68.249 73.1396 69.3102 73.1757C70.3713 73.2119 71.4147 72.8173 72.2938 72.0473L72.3492 71.9969L72.4495 71.9106C77.4498 66.9576 86.339 67.2235 91.1449 72.4785C134.209 119.766 164.978 142.131 187.207 142.131C188.94 142.135 190.672 141.991 192.391 141.699C209.792 138.73 219.531 120.485 228.954 102.844C237.049 87.6899 245.412 72.0184 258.663 65.4622C262.873 65.4622 268.979 67.5615 272.502 72.0976C284.214 87.194 298.17 95.3028 311.849 94.9578C323.922 94.6486 335.056 87.8624 344.045 75.3396C344.082 75.288 344.121 75.24 344.162 75.1958C344.219 75.1367 344.273 75.0717 344.324 75.0018C347.379 70.8682 352.369 68.8195 357.657 69.524C362.819 70.1997 367.259 73.4059 369.526 78.1002C374.375 88.1141 379.915 93.3546 385.637 93.3546C386.072 93.3557 386.506 93.3246 386.937 93.2613C394.443 92.219 401.183 82.2409 405.922 65.1675L405.277 64.8657C400.627 81.6011 394.093 91.3707 386.865 92.3772C380.976 93.1966 375.197 88.0638 370.119 77.6258C367.742 72.7015 363.113 69.3443 357.736 68.6325C352.229 67.9137 347.028 70.0703 343.845 74.3836C343.81 74.4346 343.772 74.4803 343.729 74.5201C343.668 74.5921 343.606 74.6568 343.557 74.7286C334.701 87.079 323.733 93.7645 311.854 94.0664C298.359 94.4114 284.581 86.3816 273.002 71.465C269.324 66.7276 262.968 64.5708 258.612 64.5708H258.49C245.011 71.2276 236.572 87.0358 228.405 102.319C218.637 120.607 209.414 137.882 192.29 140.8C181.735 142.604 169.189 138.644 153.955 128.774C136.671 117.538 116.263 98.8973 91.573 71.7812C86.5726 66.289 77.2441 66.0302 72.016 71.1918L71.9606 71.2348L71.8602 71.3284C71.1064 71.9733 70.2179 72.3026 69.3145 72.2717C68.4111 72.2409 67.5365 71.8513 66.81 71.1558C61.7486 65.4839 48.0754 55.3765 40.4193 62.2705C36.4413 65.8648 29.5352 67.1516 24.3571 65.2897C22.8171 64.8019 21.2368 64.5604 19.6513 64.5708H0.0444336V65.4622H19.6735C21.1919 65.4576 22.705 65.6919 24.1796 66.1597Z" fill="#D8D1FF"/>
<path d="M24.0514 78.1567C29.3462 80.0618 36.6525 78.7103 40.6861 75.0799C48.1032 68.4016 62.1094 79.1919 66.0985 83.6633C67.5931 85.3382 70.4992 85.4389 72.0771 83.8647H72.1216L72.2268 83.7712C77.0217 79.0195 86.2168 79.2927 90.7893 84.3176C114.68 110.571 134.643 128.687 151.765 139.671C164.722 147.996 175.856 152.093 185.613 152.093C187.244 152.095 188.875 151.975 190.496 151.733C208.725 149.002 219.165 130.714 229.26 113.029C237.483 98.6519 245.978 83.7569 258.617 77.4739C263.001 77.4739 269.113 79.7096 272.369 83.9438C283.792 98.6591 297.765 106.567 311.744 106.229C324.028 105.913 335.15 99.2989 343.895 87.1068C343.929 87.0625 343.967 87.0216 344.007 86.9846L344.178 86.7833C347.152 82.7576 352.134 80.7806 357.513 81.4851C362.691 82.168 367.086 85.2736 369.269 89.781C373.948 99.4427 379.653 104.662 385.47 104.662C385.923 104.663 386.376 104.632 386.826 104.568C394.454 103.504 401.438 93.5191 405.971 77.179L405.216 76.8268C400.771 92.7787 394.048 102.512 386.737 103.533C380.786 104.36 374.819 99.2845 369.953 89.2274C367.635 84.4469 363.019 81.1617 357.596 80.4499C351.973 79.731 346.746 81.8086 343.601 86.0645L343.495 86.1793C343.43 86.2458 343.369 86.3179 343.312 86.395C334.716 98.3787 323.794 104.877 311.732 105.179C297.981 105.531 284.208 97.7318 272.946 83.2249C269.512 78.7966 263.106 76.4818 258.551 76.4818H258.406C245.511 82.8509 236.922 97.8898 228.621 112.426C218.621 129.93 208.286 148.032 190.407 150.713C179.679 152.324 167.156 148.406 152.127 138.751C135.065 127.781 115.175 109.715 91.3172 83.5123C86.4002 78.1208 76.8715 77.8331 71.7434 82.9372L71.6989 82.9731L71.5883 83.0738C70.845 83.6937 69.9743 84.0096 69.0903 83.9801C68.2062 83.9506 67.3495 83.5772 66.6319 82.9084C62.5205 78.3005 48.0365 67.2226 40.2303 74.282C36.369 77.7541 29.3631 79.0409 24.2738 77.2077C22.733 76.7269 21.1527 76.4855 19.5676 76.4889H0.0556641V77.5312H19.5676C21.0759 77.5127 22.5809 77.7227 24.0514 78.1567Z" fill="#D8D1FF"/>
<path d="M23.9298 90.1557C28.4912 91.7946 36.153 91.1117 40.5476 87.1507C47.4926 80.8894 61.4489 90.5797 65.8326 95.4897C67.316 97.1503 70.277 97.2509 71.8605 95.6909H71.8996L72.0163 95.5904C76.6943 90.9608 85.9948 91.2267 90.4507 96.1152C113.524 121.455 132.954 138.996 149.849 149.736C162.834 157.997 174.079 162.051 184.051 162.051C185.582 162.051 187.079 161.958 188.547 161.77C207.648 159.297 218.821 140.974 229.627 123.246C238.333 108.976 246.55 95.4898 258.584 89.5087C262.968 89.5087 269.246 91.8666 272.252 95.7341C283.22 109.867 297.57 117.775 311.649 117.408C317.696 117.283 323.661 115.568 329.18 112.369C334.7 109.169 339.659 104.552 343.757 98.7965L343.857 98.6888C343.923 98.6268 343.985 98.557 344.04 98.4803C346.896 94.62 351.996 92.6573 357.374 93.369C362.564 94.0519 366.908 97.0498 369.009 101.377C373.942 111.578 380.237 116.696 386.727 115.791C394.594 114.691 401.633 104.972 406.033 89.1133L405.167 88.7107C400.888 104.116 394.132 113.555 386.626 114.59C380.514 115.439 374.531 110.521 369.792 100.73C367.569 96.0863 362.936 92.8874 357.469 92.1613C351.825 91.4424 346.429 93.5199 343.385 97.6391L343.29 97.7399C343.218 97.8091 343.152 97.886 343.09 97.9699C339.076 103.605 334.218 108.127 328.812 111.261C323.407 114.394 317.566 116.075 311.643 116.201C297.837 116.553 283.708 108.782 272.919 94.8787C269.585 90.6013 263.018 88.3009 258.513 88.3009H258.429L258.345 88.3368C246.033 94.4186 237.327 108.688 228.899 122.491C218.21 140.017 207.159 158.147 188.452 160.591C177.563 162.029 165.066 158.104 150.249 148.679C133.426 137.982 114.058 120.499 91.0453 95.2237C86.3061 90.0191 76.4166 89.7315 71.4552 94.6486L71.4161 94.6846C71.3726 94.7122 71.3319 94.7458 71.2941 94.7851C70.0829 96.0001 67.5827 95.9138 66.4327 94.6271C61.8934 89.5446 47.3759 79.581 40.0143 86.209C35.964 89.8609 28.5466 90.6229 24.1685 89.0414C22.6286 88.5658 21.0513 88.3246 19.4683 88.3225H0.0224609V89.516H19.4683C20.9695 89.5042 22.4669 89.7187 23.9298 90.1557Z" fill="#D8D1FF"/>
<path d="M23.8019 102.146C28.3132 103.771 36.2419 102.966 40.4088 99.2136C46.9649 93.3115 61.0154 102.211 65.5657 107.315C67.0325 108.954 70.1052 109.055 71.6441 107.516H71.6773L71.8107 107.409C76.2555 102.98 85.8563 103.246 90.1122 107.919C112.336 132.361 131.226 149.297 147.894 159.772C160.922 167.967 172.284 171.992 182.485 171.992C183.852 171.992 185.201 171.913 186.523 171.77C206.525 169.613 218.492 151.225 230.043 133.461C238.816 119.96 247.106 107.215 258.546 101.521C262.874 101.521 269.263 103.85 272.13 107.545C282.57 120.988 296.526 128.637 310.571 128.637H311.554C324.078 128.321 335.445 121.887 343.612 110.529L343.696 110.442C343.768 110.377 343.835 110.302 343.896 110.219C346.674 106.46 351.78 104.576 357.229 105.295C362.424 105.978 366.724 108.89 368.736 113.023C373.569 123.008 379.921 127.99 386.626 127.056C394.722 125.927 401.816 116.459 406.072 101.09L405.094 100.63C401.027 115.28 394.077 124.662 386.504 125.711C380.22 126.588 374.22 121.829 369.609 112.304C367.431 107.804 362.837 104.677 357.325 103.951C351.575 103.189 346.14 105.238 343.145 109.285L343.068 109.371C342.991 109.441 342.918 109.521 342.851 109.608C334.895 120.701 323.772 126.976 311.532 127.285C297.442 127.645 283.348 120.097 272.863 106.604C269.747 102.585 263.09 100.184 258.45 100.184H258.356L258.268 100.227C246.528 106.028 238.133 118.918 229.243 132.577C217.832 150.132 206.026 168.283 186.463 170.419C175.434 171.612 162.972 167.73 148.371 158.543C131.798 148.119 112.969 131.225 90.8007 106.877C86.1503 101.773 76.0724 101.485 71.1998 106.316C71.1516 106.347 71.1066 106.385 71.0663 106.431C69.9163 107.574 67.3718 107.495 66.2884 106.28C64.1216 103.85 59.4042 100.191 54.176 97.9052C49.848 96.0073 43.8479 94.5049 39.8587 98.0992C35.8696 101.694 28.4133 102.413 24.1241 100.831C22.5854 100.362 21.0102 100.121 19.4293 100.112H0.0947266V101.464H19.4293C20.902 101.478 22.3688 101.707 23.8019 102.146Z" fill="#D8D1FF"/>
<path d="M23.6742 114.144C28.2023 115.769 36.264 114.863 40.2698 111.268C46.8258 105.366 61.4322 114.791 65.2991 119.118C66.7493 120.75 69.9107 120.851 71.4498 119.312C71.5032 119.279 71.5532 119.238 71.5995 119.19C75.9498 114.877 85.6283 115.143 89.7675 119.686C111.13 143.143 129.47 159.504 145.843 169.721C158.955 177.894 170.473 181.898 180.934 181.898C182.08 181.898 183.218 181.848 184.34 181.754C205.391 179.942 218.165 161.503 230.522 143.653C239.339 130.93 247.667 118.903 258.523 113.461C262.907 113.504 269.336 115.833 272.019 119.284C282.237 132.388 296.034 139.752 310.421 139.778H311.472C324.2 139.448 335.572 133.201 343.474 122.181L343.546 122.109C343.626 122.041 343.701 121.961 343.768 121.872C346.468 118.22 351.547 116.401 357.102 117.127C362.302 117.846 366.547 120.599 368.475 124.575C373.137 134.208 379.72 139.182 386.537 138.233C394.743 137.083 402.094 127.644 406.144 112.972L405.033 112.469C401.11 126.588 394.143 135.66 386.393 136.738C380.037 137.629 373.854 132.906 369.437 123.798C367.325 119.427 362.769 116.387 357.213 115.653C351.346 114.877 345.874 116.868 342.935 120.844L342.868 120.908C342.783 120.981 342.705 121.065 342.634 121.16C334.939 131.893 323.861 137.974 311.449 138.291C304.304 138.452 297.207 136.762 290.576 133.318C283.943 129.875 277.912 124.748 272.836 118.241C269.835 114.374 263.012 111.987 258.39 111.987H258.284L258.184 112.037C247.023 117.551 238.577 129.743 229.638 142.648C217.415 160.26 204.819 178.476 184.246 180.244C160.811 182.251 130.142 162.064 90.4951 118.529C85.9337 113.497 75.6663 113.238 70.866 117.99L70.7162 118.112C69.605 119.19 67.055 119.111 66.0327 117.968C61.4713 112.864 46.5533 103.749 39.5861 110.061C35.8914 113.389 28.1575 114.216 23.9628 112.706C22.4228 112.25 20.8477 112.021 19.2679 112.023H0.027832V113.526H19.2679C20.7498 113.518 22.228 113.726 23.6742 114.144Z" fill="#D8D1FF"/>
<path d="M23.563 126.135C28.0077 127.738 36.2418 126.854 40.1531 123.353C46.1869 117.911 60.76 126.157 65.0436 130.959C66.4825 132.569 69.7328 132.67 71.2496 131.153C71.3057 131.112 71.3596 131.067 71.4107 131.016C75.561 126.904 85.5115 127.163 89.4507 131.491C130.459 176.528 158.56 191.833 179.457 191.826C203.114 191.826 217.565 172.229 231.055 153.927C239.883 141.958 248.222 130.642 258.495 125.517C262.267 125.56 269.129 127.551 271.902 131.131C281.625 143.654 295.915 151.037 310.321 151.037H311.393C324.328 150.706 335.679 144.631 343.334 133.956L343.395 133.899C343.482 133.827 343.562 133.742 343.635 133.647C346.218 130.154 351.458 128.364 356.968 129.09C362.164 129.808 366.358 132.454 368.202 136.278C372.759 145.695 379.403 150.534 386.443 149.549C394.865 148.377 402.249 139.204 406.189 125.006L404.989 124.446C401.216 138.032 394.232 146.803 386.309 147.91C379.776 148.823 373.569 144.258 369.281 135.401C367.236 131.167 362.681 128.213 357.097 127.494C351.113 126.703 345.596 128.644 342.723 132.526L342.662 132.583C342.573 132.662 342.489 132.751 342.412 132.849C334.972 143.223 323.944 149.11 311.36 149.427C296.914 149.801 282.519 142.54 272.796 130.017C269.712 126.042 262.435 123.921 258.35 123.921H258.235L258.123 123.979C247.527 129.212 239.066 140.692 230.104 152.849C217.326 170.167 204.13 188.073 183.229 190.065C159.339 192.329 128.92 172.812 90.2341 130.29C85.7616 125.38 75.3054 125.1 70.5995 129.758L70.4329 129.895C69.394 130.93 66.8212 130.858 65.8433 129.758C61.9542 125.409 46.3981 115.74 39.3865 122.045C35.8085 125.265 27.9743 126.07 23.8685 124.597C22.3288 124.154 20.7567 123.929 19.1795 123.928H0.027832V125.582H19.1795C20.6519 125.56 22.1216 125.745 23.563 126.135Z" fill="#D8D1FF"/>
<path d="M23.4183 138.134C27.8131 139.709 36.1968 138.853 39.9972 135.417C46.0087 130.004 61.1098 138.681 64.7601 142.779C66.1825 144.375 69.5212 144.475 71.0268 142.972H70.9991C71.0625 142.934 71.1224 142.886 71.1771 142.829C75.2162 138.825 85.2615 139.083 89.0895 143.288C124.864 182.575 153.994 201.769 177.928 201.769C179.432 201.769 180.914 201.692 182.373 201.54C204.125 199.29 218.742 180.649 231.632 164.2C240.433 152.972 248.75 142.369 258.45 137.523C262.34 137.566 269.201 139.615 271.785 142.929C281.23 155.085 295.492 162.245 310.165 162.245H311.31C324.245 161.914 335.861 155.876 343.195 145.676L343.234 145.633C343.332 145.558 343.421 145.469 343.5 145.366C346.007 141.973 351.279 140.255 356.835 140.995C362.024 141.679 366.169 144.252 367.947 147.876C372.392 157.084 379.12 161.785 386.382 160.771C395.015 159.564 402.443 150.658 406.255 136.941L404.944 136.33C401.316 149.384 394.321 157.846 386.232 158.974C379.525 159.916 373.292 155.517 369.131 146.919C367.147 142.829 362.613 139.939 356.996 139.198C350.884 138.393 345.363 140.269 342.518 144.094L342.473 144.13C342.373 144.209 342.281 144.306 342.2 144.418C335.122 154.28 323.867 160.117 311.288 160.441C296.604 160.814 282.191 153.799 272.773 141.663C269.768 137.796 262.462 135.733 258.329 135.733H258.201L258.079 135.791C248.05 140.744 239.606 151.52 230.66 162.928C204.303 196.551 174.433 234.658 89.9891 141.923C85.7 137.221 74.8882 136.927 70.3545 141.391C70.2935 141.434 70.2345 141.483 70.1771 141.534C69.1993 142.512 66.5878 142.44 65.6711 141.412C63.6821 139.177 58.8537 135.82 53.4811 133.713C49.0364 131.959 42.9253 130.579 39.2029 133.929C35.8692 136.955 27.7851 137.825 23.796 136.388C22.257 135.957 20.6871 135.74 19.1125 135.74H0.0498047V137.545H19.1179C20.5633 137.548 22.0047 137.745 23.4183 138.134Z" fill="#D8D1FF"/>
<path d="M23.2962 150.125C27.5854 151.669 36.2473 150.736 39.8587 147.486C45.4146 142.504 60.5211 150.153 64.4936 154.603C65.8826 156.162 69.2605 156.278 70.7717 154.833C70.8408 154.793 70.9064 154.742 70.9665 154.682C74.8112 150.872 85.1119 151.131 88.7455 155.121C123.381 193.157 152.116 211.74 176.368 211.74C178.087 211.74 179.78 211.646 181.452 211.459C203.581 209.001 218.838 190.691 232.294 174.538C241.034 164.043 249.29 154.136 258.406 149.571C262.246 149.614 269.207 151.635 271.647 154.768C281.041 166.875 295.831 173.869 311.211 173.459C324.328 173.129 335.924 167.277 343.024 157.407C343.13 157.329 343.227 157.232 343.313 157.119C345.746 153.826 350.996 152.18 356.685 152.936C361.791 153.611 365.981 156.135 367.625 159.534C371.92 168.398 378.882 173.079 386.259 172.051C394.971 170.829 402.633 161.986 406.261 148.924L404.839 148.263C401.411 160.598 394.232 168.966 386.105 170.102C379.215 171.065 372.948 166.831 368.914 158.493C366.997 154.539 362.486 151.735 356.847 150.987C350.735 150.182 345.013 152.036 342.257 155.725H342.223C342.113 155.807 342.012 155.908 341.924 156.026C335.107 165.537 323.889 171.173 311.16 171.497C296.159 171.877 281.803 165.098 272.691 153.36C269.803 149.643 262.318 147.608 258.245 147.608H258.107L257.979 147.674C248.533 152.346 240.116 162.432 231.227 173.099C217.948 189.038 202.892 207.103 181.284 209.511C156.416 212.279 126.453 194.004 89.6841 153.633C85.4949 149.025 74.5109 148.731 70.0495 153.093C69.9794 153.132 69.9141 153.182 69.8553 153.244C68.9385 154.157 66.2993 154.086 65.4437 153.122C61.61 148.808 45.5757 139.924 38.9586 145.883C35.7417 148.758 27.6132 149.664 23.663 148.242C22.125 147.819 20.5571 147.607 18.9849 147.608H0.0117188V149.564H18.9849C20.433 149.561 21.8774 149.75 23.2962 150.125Z" fill="#D8D1FF"/>
<path d="M23.1683 162.123C27.4408 163.66 36.2412 162.689 39.7248 159.548C45.2086 154.61 60.8377 162.612 64.2268 166.428C65.5991 167.959 69.0493 168.081 70.5494 166.666C70.624 166.623 70.6947 166.57 70.7604 166.507C74.4885 162.805 84.8835 163.056 88.4059 166.924C125.631 207.806 153.16 221.703 174.773 221.703C200.414 221.703 217.732 202.134 233.011 184.86C241.65 175.104 249.811 165.874 258.39 161.582C262.179 161.634 269.241 163.617 271.541 166.616C280.519 178.182 295.703 185.126 311.155 184.73C324.455 184.393 336.018 178.735 342.889 169.203C343.003 169.118 343.107 169.014 343.201 168.893C345.529 165.752 350.918 164.142 356.613 164.896C361.696 165.566 365.83 167.988 367.385 171.209C371.58 179.835 378.626 184.407 386.232 183.343C395.121 182.1 402.844 173.517 406.339 160.935L404.805 160.217C401.528 172.028 394.338 180.086 386.054 181.237C379.086 182.215 372.619 178.037 368.769 170.079C366.919 166.263 362.436 163.538 356.774 162.791C350.541 161.964 344.784 163.761 342.067 167.37C341.947 167.457 341.836 167.566 341.74 167.693C335.173 176.851 324.016 182.286 311.121 182.617C296.12 182.998 281.369 176.29 272.691 165.12C269.79 161.381 261.862 159.505 258.245 159.505H258.095L257.956 159.57C249.066 163.97 240.733 173.358 231.944 183.293C218.109 198.929 202.431 216.649 180.423 219.236C155.011 222.256 125.258 204.615 89.4672 165.321C85.3669 160.821 74.2104 160.525 69.8213 164.782C69.7492 164.827 69.6803 164.88 69.6157 164.941C68.7601 165.795 66.099 165.731 65.2989 164.832C63.1544 162.431 57.9986 159.376 53.0482 157.578C44.381 154.43 40.3972 156.378 38.7971 157.823C35.7524 160.562 27.3964 161.453 23.6072 160.088C22.0696 159.681 20.504 159.477 18.9346 159.477H0.0444336V161.582H18.9346C20.3561 161.581 21.7744 161.762 23.1683 162.123Z" fill="#D8D1FF"/>
</svg>
