<svg width="1200" height="1155" viewBox="0 0 1200 1155" fill="none" xmlns="http://www.w3.org/2000/svg">
<path d="M38.0352 20.9694C46.8622 24.4944 56.1395 25.2548 65.2021 23.1963C74.2647 21.1378 82.8882 16.3117 90.4546 9.06301C102.092 -2.23494 117.189 -2.3571 135.308 8.64867C150.231 17.7309 163.965 32.3894 172.841 43.1273C175.278 46.0782 178.37 47.7629 181.597 47.896C184.823 48.0291 187.984 46.6027 190.542 43.8579L191.03 43.3223C199.828 33.9559 210.664 29.0677 221.732 29.4708C232.801 29.8739 243.436 35.5438 251.872 45.5378C342.279 152.454 414.112 225.137 471.494 267.747C512.293 298.038 545.788 312.988 573.152 312.988C579.508 313.022 585.851 312.133 592.076 310.334C635.759 297.38 655.764 238.942 677.048 177.096C687.985 145.271 699.308 112.352 714.333 84.0095C731.3 51.9905 750.785 30.4415 773.865 18.267C782.203 18.2641 790.461 20.5552 798.161 25.0094C805.861 29.4636 812.852 35.9931 818.736 44.2229C839.933 73.6363 860.987 95.8913 881.36 110.403C901.733 124.916 922.457 132.318 942.219 131.709C960.286 130.997 977.978 124.383 993.871 112.4C1010.84 99.958 1027.72 81.2335 1044.04 56.7144L1044.93 55.4236C1050.32 47.5319 1056.94 41.473 1064.28 37.7153C1071.62 33.9577 1079.47 32.6018 1087.25 33.7527C1095.17 34.8517 1102.8 38.4729 1109.57 44.337C1116.32 50.201 1122.03 58.1516 1126.23 67.574C1135.44 88.0513 1144.53 103.269 1153.26 112.839C1162 122.407 1170.49 126.523 1178.72 125.306C1188.91 123.771 1198.89 113.861 1208.43 95.8428C1217.97 77.8244 1226.93 52.0145 1235.65 18.1208L1235.35 17.9745C1226.61 51.7468 1217.49 77.8493 1208.16 95.5751C1198.83 113.301 1188.82 123.333 1178.72 124.794C1170.6 126.012 1162.1 121.847 1153.49 112.425C1144.87 103.002 1135.72 87.6858 1126.55 67.257C1122.32 57.763 1116.58 49.7509 1109.78 43.8401C1102.98 37.929 1095.29 34.2774 1087.32 33.1683C1079.49 32.0141 1071.59 33.3788 1064.2 37.1571C1056.81 40.9354 1050.15 47.0262 1044.72 54.9607L1043.84 56.2755C1027.54 80.7462 1010.65 99.4467 993.767 111.865C977.917 123.82 960.272 130.41 942.256 131.1C922.528 131.66 902.067 124.502 881.536 109.843C861.004 95.1852 840.159 73.1254 818.999 43.7847C813.082 35.5023 806.05 28.932 798.302 24.4524C790.558 19.9727 782.254 17.6722 773.865 17.6827C750.714 29.8572 731.179 51.5761 714.161 83.6924C699.115 112.083 687.793 145.003 676.839 176.852C655.608 238.601 635.55 296.942 592.093 309.847C561.792 318.856 522.41 304.977 471.737 267.309C414.372 224.723 342.556 152.041 252.169 45.1484C243.682 35.1245 232.995 29.4382 221.874 29.0309C210.753 28.6235 199.865 33.5191 191.013 42.9079L190.523 43.4436C188.02 46.1133 184.935 47.5009 181.785 47.3724C178.634 47.2435 175.612 45.6066 173.225 42.7373C164.331 31.9994 150.51 17.2927 135.605 8.1862C117.38 -2.89263 102.18 -2.72231 90.4378 8.67303C82.8983 15.8938 74.3042 20.6978 65.274 22.7397C56.2435 24.7816 47.0003 24.0108 38.2091 20.4826C33.3615 18.6071 28.3542 17.6571 23.3229 17.6583H-39.7546V18.0964H23.3229C28.2975 18.1238 33.2467 19.0901 38.0352 20.9694Z" fill="#D8D1FF"/>
<path d="M37.5988 61.5843C46.4177 65.0753 55.6778 65.842 64.7316 63.8319C73.7854 61.8219 82.4146 57.0829 90.0182 49.9452C118.744 22.0901 163.406 72.736 172.002 83.1572C174.482 86.0813 177.601 87.7466 180.848 87.8792C184.095 88.0119 187.28 86.6044 189.878 83.8877L190.366 83.3764C199.164 74.2738 209.898 69.5391 220.852 69.9276C231.807 70.3157 242.351 75.8045 250.806 85.5191C338.732 189.514 409.113 260.345 465.988 302.079C506.7 331.956 540.39 346.662 568.224 346.662C574.499 346.703 580.761 345.887 586.922 344.227C632.525 331.712 654.296 273.177 677.362 211.184C700.426 149.192 724.191 85.2515 773.761 58.8568C790.414 58.9424 806.398 67.9984 818.372 84.1309C859.259 140.864 900.059 169.621 939.654 169.596H941.888C977.658 168.623 1011.89 143.957 1043.6 96.3298L1044.12 95.5997L1044.49 95.0644C1050 87.3745 1056.67 81.4985 1064.02 77.8654C1071.37 74.2324 1079.21 72.9341 1086.97 74.0663C1094.72 75.1982 1102.19 78.7315 1108.84 84.408C1115.49 90.084 1121.15 97.7598 1125.39 106.873C1143.39 146.903 1161.2 165.895 1178.32 163.338C1199.29 160.173 1218.68 124.916 1235.79 58.6376L1235.14 58.3215C1218.14 124.307 1198.99 159.345 1178.23 162.462C1161.39 164.897 1143.83 146.124 1125.99 106.459C1121.68 97.2203 1115.95 89.4386 1109.21 83.6845C1102.47 77.9304 1094.9 74.3491 1087.03 73.2031C1079.17 72.0567 1071.23 73.3748 1063.78 77.0606C1056.33 80.7463 1049.57 86.7055 1043.99 94.5036L1043.62 95.0154L1043.11 95.77C1011.5 143.226 977.449 167.77 941.888 168.817H939.654C900.252 168.817 859.607 140.158 818.862 83.5951C806.739 67.2651 790.549 58.1107 773.69 58.0534H773.569C723.719 84.5694 699.832 148.778 676.751 210.868C653.668 272.958 632.07 330.982 586.797 343.424C555.872 351.898 516.449 338.141 466.231 301.349C409.41 259.664 339.066 188.856 251.174 84.9104C242.603 75.058 231.91 69.4915 220.803 69.0987C209.696 68.7059 198.814 73.5098 189.895 82.7437L189.389 83.2545C186.916 85.8367 183.887 87.1726 180.799 87.0442C177.71 86.9163 174.744 85.331 172.386 82.5484C166.743 75.7796 151.821 58.8818 134.715 48.8012C116.298 37.917 101.097 38.0874 89.5645 49.2881C75.184 63.2157 55.299 67.6226 37.6687 60.7808C32.8217 58.9486 27.8215 58.0232 22.7994 58.0289H-40V58.9787H22.7994C27.7942 58.9222 32.7711 59.7986 37.5988 61.5843Z" fill="#D8D1FF"/>
<path d="M37.2314 102.221C54.8968 109.063 75.4803 104.656 89.6511 90.8252C113.607 67.5965 152.206 100.249 171.234 123.21C173.756 126.114 176.9 127.761 180.17 127.889C183.44 128.017 186.648 126.618 189.282 123.916L189.789 123.429C206.948 105.094 233.316 106.019 249.81 125.523C335.237 226.547 404.15 295.528 460.465 336.361C501.143 365.824 535.026 380.361 563.385 380.361C569.536 380.393 575.677 379.651 581.729 378.144C629.433 366.14 652.952 307.532 677.834 245.37C701.58 186.153 726.128 124.915 773.69 99.567C790.15 99.567 807.137 109.015 818.041 124.135C857.443 178.799 899.323 207.604 939.319 207.604H941.608C978.059 206.606 1012.25 182.524 1043.22 136.042L1043.67 135.384C1043.81 135.189 1043.96 134.995 1044.09 134.8C1054.57 119.509 1069.95 112.058 1086.25 114.372C1102.55 116.685 1116.53 128.323 1124.6 146.268C1141.15 183.108 1157.94 201.711 1174.6 201.711C1175.72 201.715 1176.83 201.634 1177.95 201.468C1199.5 198.23 1219.57 162.826 1236 99.202L1235 98.6906C1218.71 161.852 1198.95 196.915 1177.83 200.104C1160.55 202.71 1142.88 184.351 1125.41 145.587C1117.16 127.252 1102.89 115.37 1086.27 113.008C1069.65 110.646 1053.96 118.243 1043.25 133.875L1042.85 134.435L1042.34 135.141C1011.59 181.405 977.691 205.242 941.503 206.216C901.071 207.336 858.628 178.628 818.685 123.21C807.572 107.797 790.275 98.2033 773.518 98.2033H773.325C725.342 123.721 700.672 185.227 676.822 244.712C652.044 306.51 628.629 364.899 581.416 376.781C515.193 393.436 410.004 313.279 250.368 124.476C233.507 104.534 206.564 103.585 189.021 122.334L188.532 122.821C186.088 125.326 183.114 126.622 180.081 126.503C177.049 126.384 174.131 124.857 171.792 122.163C152.572 98.9338 113.414 65.9407 88.9344 89.6812C74.9557 103.219 54.7392 107.602 37.3883 100.882C32.5377 99.0778 27.5395 98.1609 22.5191 98.1544H-39.9834V99.6399H22.5191C27.4835 99.5915 32.4303 100.459 37.2314 102.221Z" fill="#D8D1FF"/>
<path d="M36.8479 142.84C54.3209 149.633 75.3763 145.275 89.2673 131.688C114.272 107.339 156.328 146.297 170.429 163.342C172.991 166.236 176.166 167.876 179.463 168.008C182.759 168.14 185.995 166.757 188.672 164.072L188.882 163.854L189.162 163.561C205.656 145.957 232.948 146.906 248.762 165.606C391.36 334.248 490.732 414.112 558.737 414.112C564.635 414.141 570.526 413.497 576.349 412.189C626.27 400.745 651.625 341.966 678.48 279.73C702.944 223.167 728.104 164.681 773.656 140.356C790.029 140.356 807.309 149.78 817.724 164.243C856.164 217.592 898.101 245.715 938.917 245.715H941.365C978.06 244.692 1013 220.538 1042.85 175.833L1043.74 174.64C1053.82 160.031 1069.57 152.531 1085.82 154.844C1102.07 157.157 1116.15 168.698 1123.84 185.792C1140.91 223.776 1159.52 242.427 1177.62 239.7C1199.99 236.34 1220.25 201.765 1236.24 139.723L1234.9 139.066C1219.17 200.328 1199.25 234.465 1177.48 237.728C1160.01 240.358 1141.82 222.023 1125.06 184.72C1117.14 167.116 1102.54 155.21 1085.97 152.848C1069.41 150.486 1053.12 158.107 1042.73 173.276L1042.32 173.787L1041.82 174.494C1012.32 218.785 977.57 242.671 941.348 243.718H938.934C898.432 243.718 856.933 215.814 818.753 162.831C808.042 147.978 790.309 138.481 773.552 138.481H773.288C727.195 163.001 701.806 221.853 677.187 278.756C650.505 340.579 625.328 398.992 576.052 410.241C508.432 425.727 404.694 347.518 249.618 164.121C233.053 144.642 205.499 143.571 188.218 162.028L187.991 162.246L187.728 162.514C185.303 164.889 182.394 166.109 179.432 165.995C176.47 165.881 173.612 164.438 171.286 161.881C159.972 148.471 147.226 137.602 133.508 129.668C114.952 119.368 99.3481 119.538 88.3751 130.179C74.8332 143.327 54.2676 147.685 37.1788 141.062C32.3305 139.293 27.3387 138.401 22.3267 138.408H-39.8943V140.381H22.3267C27.2219 140.338 32.1023 141.164 36.8479 142.84Z" fill="#D8D1FF"/>
<path d="M36.4463 183.476C53.7448 190.172 75.2718 185.692 88.8657 172.568C112.018 150.118 153.272 183.574 169.609 203.297C172.238 206.104 175.435 207.684 178.745 207.811C182.055 207.938 185.309 206.605 188.043 204.003L188.253 203.808L188.533 203.516C204.643 186.325 232.216 187.251 247.732 205.488C386.75 369.917 484.826 447.712 553.776 447.712C559.478 447.735 565.173 447.165 570.81 446.008C623.074 435.221 650.35 376.321 679.146 313.939C704.116 260.006 729.924 204.246 773.502 180.969C789.75 180.969 807.327 190.319 817.289 204.149C854.804 256.207 896.6 283.624 938.358 283.624H940.981C978.27 282.602 1013.34 259.032 1042.33 215.447L1042.74 214.912C1042.9 214.692 1043.07 214.498 1043.22 214.278C1053.07 199.912 1068.78 192.753 1085.15 195.091C1101.52 197.429 1115.43 208.605 1122.84 225.089C1138.46 259.835 1155.83 278.024 1173.32 278.024C1174.58 278.024 1175.84 277.926 1177.1 277.732C1199.92 274.298 1220.94 239.65 1236.26 180.165L1234.51 179.313C1219.44 237.751 1198.95 271.84 1176.85 275.249C1158.85 277.951 1140.67 260.152 1124.31 223.774C1116.62 206.73 1102.03 194.994 1085.29 192.607C1068.55 190.221 1052.09 197.648 1041.8 212.55C1041.68 212.725 1041.55 212.887 1041.42 213.036C1041.22 213.28 1041.05 213.499 1040.89 213.743C1012.22 256.792 977.605 280.094 940.806 281.092C898.713 282.261 856.357 255.038 818.494 202.396C808.185 188.103 789.996 178.485 773.256 178.485H772.942C728.699 202.006 702.682 258.179 677.539 312.526C648.899 374.397 621.835 432.835 570.375 443.475C501.374 457.695 399.139 381.458 248.711 203.516C232.706 184.572 203.98 183.623 187.258 201.471L187.065 201.641L186.769 201.933C184.38 204.236 181.527 205.418 178.624 205.308C175.721 205.199 172.918 203.804 170.623 201.324C159.286 188.123 146.519 177.512 132.794 169.89C114.046 159.81 98.4245 160.004 87.6612 170.45C74.7485 182.966 53.3606 187.494 36.796 180.993C31.9552 179.259 26.9759 178.384 21.9781 178.388H-39.9631V180.823H21.9781C26.8621 180.845 31.7246 181.737 36.4463 183.476Z" fill="#D8D1FF"/>
<path d="M36.0444 224.089C52.8886 230.639 75.3753 226.037 88.3754 213.448C111.877 190.658 155.49 227.376 168.752 243.349C171.414 246.156 174.641 247.731 177.978 247.853C181.316 247.976 184.597 246.639 187.362 244.031L187.536 243.86L187.851 243.568C203.577 226.792 231.533 227.693 246.648 245.492C382.083 405.66 478.85 481.411 548.759 481.411C554.211 481.425 559.656 480.936 565.064 479.948C619.789 469.893 650.417 408.094 680.053 348.342C705.51 297.014 731.81 243.933 773.484 221.727C786.727 221.727 805.929 228.837 817.008 244.202C853.841 295.334 897.733 322.8 940.754 321.631C978.721 320.584 1013.74 297.599 1042.01 255.182C1042.13 255.008 1042.25 254.845 1042.38 254.696C1042.56 254.495 1042.73 254.275 1042.88 254.038C1052.5 240.037 1068.19 233.098 1084.82 235.485C1101.05 237.773 1115.01 248.633 1122.14 264.533C1137.4 298.451 1154.82 316.201 1172.81 316.201C1174.18 316.205 1175.55 316.1 1176.9 315.885C1200.51 312.355 1221.71 278.558 1236.61 220.729L1234.58 219.706C1219.96 276.391 1199.41 309.481 1176.68 312.89C1158.15 315.666 1139.98 298.281 1124.01 262.926C1116.53 246.247 1101.98 234.876 1085.07 232.465C1067.75 230.03 1051.39 237.335 1041.38 251.945C1041.27 252.117 1041.15 252.272 1041.01 252.407C1040.82 252.651 1040.63 252.87 1040.47 253.113C1012.62 294.945 978.127 317.589 940.771 318.612C898.327 319.781 854.996 292.583 818.581 242.059C807.013 226.013 787.025 218.708 773.326 218.708H772.941C730.551 241.255 704.011 294.799 678.325 346.565C647.605 408.508 618.6 467.019 564.747 476.904C531.549 483.015 492.093 469.601 444.184 436.169C389.824 398.112 325.644 334.975 247.994 243.13C232.268 224.527 202.93 223.651 186.488 241.133L186.314 241.279L185.998 241.596C183.627 243.78 180.833 244.896 177.992 244.791C175.151 244.687 172.4 243.367 170.115 241.012C154.197 221.8 111.196 187.566 87.1176 210.916C74.6069 223.091 52.8875 227.449 36.6025 221.143C31.7592 219.49 26.7894 218.672 21.8031 218.708H-39.8599V221.727H21.8729C26.648 221.711 31.4068 222.505 36.0444 224.089Z" fill="#D8D1FF"/>
<path d="M35.6418 264.724C52.2938 271.177 75.2717 266.6 87.9572 254.303C111.284 231.683 155.333 268.231 167.878 283.376C172.579 289.049 181.718 289.39 186.681 284.058H186.821L187.152 283.741C202.231 267.647 231.15 268.572 245.53 285.592C320.665 374.515 383.447 435.874 437.298 473.08C478.047 501.277 513.06 515.154 543.746 515.154C548.877 515.159 554.005 514.754 559.102 513.936C616.433 504.683 649.266 442.74 681.015 382.842C706.877 334.143 733.593 283.693 773.343 262.411C787.129 262.411 806.351 269.984 816.59 284.326C852.515 334.168 896.461 360.952 940.423 359.808C979.056 358.736 1014.04 336.335 1041.54 295.039C1041.65 294.889 1041.76 294.751 1041.89 294.625L1042.43 293.944C1051.78 280.308 1067.45 273.612 1084.37 275.998C1100.65 278.311 1114.47 288.83 1121.34 304.097C1136.05 336.822 1154 354.499 1172.29 354.499C1173.71 354.503 1175.14 354.398 1176.56 354.183C1200.54 350.579 1222.51 316.758 1236.77 261.413L1234.39 260.22C1220.41 314.25 1199.27 347.219 1176.28 350.677C1157.56 353.477 1138.79 336.286 1123.49 302.222C1116.2 286.03 1101.68 274.902 1084.63 272.492C1066.94 270.057 1050.5 277.094 1040.61 291.509L1040.28 291.898C1040.08 292.123 1039.88 292.367 1039.7 292.628C1012.67 333.218 978.32 355.229 940.386 356.252C897.139 357.445 853.825 331.027 818.406 281.891C807.607 266.892 787.46 259.051 773.133 259.051H772.678C732.125 280.624 705.112 331.562 679.007 380.796C647.555 440.086 615.053 501.399 558.822 510.478C525.085 515.935 485.7 502.665 438.435 469.963C384.774 432.806 322.221 371.617 247.19 282.864C231.726 264.603 201.759 263.628 185.631 280.916L185.491 281.038L185.143 281.379C182.806 283.479 180.068 284.549 177.287 284.449C174.507 284.349 171.812 283.084 169.556 280.819C156.626 265.211 111.074 227.69 86.5238 251.6C74.3802 263.361 52.3468 267.719 36.3412 261.51C31.4953 259.882 26.5255 259.064 21.5405 259.075H-39.824V262.606H21.5405C26.2838 262.543 31.017 263.254 35.6418 264.724Z" fill="#D8D1FF"/>
<path d="M35.258 305.366C49.6034 310.918 73.6993 308.605 87.5204 295.188C109.362 273.98 153.254 306.802 167.041 323.433C171.706 329.058 181.018 329.398 185.998 324.115H186.121L186.488 323.774C201.2 308.093 230.45 308.994 244.464 325.552C317.03 411.382 378.134 470.793 431.269 507.17C472.105 535.15 507.47 548.882 538.834 548.882C543.648 548.882 548.357 548.567 552.972 547.932C613.044 539.554 648.182 477.491 682.166 417.445C709.547 369.112 735.389 323.434 773.238 303.175C787.025 303.175 806.77 311.161 816.222 324.261C850.716 372.131 895.846 398.915 940.123 397.673C959.142 397.248 977.901 391.441 995.26 380.604C1012.62 369.767 1028.21 354.127 1041.1 334.634L1041.42 334.269C1041.63 334.059 1041.82 333.822 1041.99 333.563C1050.97 320.487 1067.02 313.839 1083.93 316.25C1100.25 318.563 1113.91 328.717 1120.52 343.375C1136.03 377.927 1155.83 395.262 1176.24 392.194C1200.98 388.469 1223.12 355.55 1236.96 301.836L1234.23 300.472C1220.78 352.652 1199.53 384.622 1175.92 388.129C1156.7 391.002 1137.89 374.347 1122.98 341.183C1115.99 325.454 1101.42 314.619 1084.22 312.16C1066.47 309.725 1049.51 316.761 1039.93 330.713L1039.63 331.055C1039.41 331.289 1039.2 331.55 1039.01 331.834C1026.38 350.921 1011.1 366.237 994.102 376.851C977.101 387.465 958.734 393.157 940.106 393.583C896.687 394.776 852.252 368.455 818.318 321.364C807.833 306.876 787.18 299.084 773.012 299.084H772.749L772.485 299.206C733.765 319.805 706.384 368.138 679.878 414.888C646.262 474.25 611.508 535.658 552.675 543.938C518.428 548.807 479.127 535.513 432.528 503.59C379.619 467.36 318.707 408.143 246.334 322.532C231.429 304.904 200.327 303.93 184.724 320.584L184.601 320.706C184.464 320.8 184.336 320.914 184.217 321.047C180.408 325.162 172.545 324.87 168.928 320.511C154.652 303.296 108.995 269.549 85.843 291.998C73.1052 304.368 49.7776 306.949 36.0088 301.592C31.1659 299.981 26.2052 299.164 21.2266 299.157H-39.9297V303.199H21.2266C25.948 303.159 30.6572 303.886 35.258 305.366Z" fill="#D8D1FF"/>
<path d="M34.8554 345.98C49.0434 351.483 73.9789 348.756 87.0837 336.046C107.702 316.055 151.89 346.2 166.201 363.487C170.814 369.039 180.478 369.379 185.317 364.169H185.422L185.841 363.804C199.82 348.805 230.014 349.706 243.399 365.532C313.292 448.319 372.699 505.684 425.121 541.163C466.093 568.922 501.826 582.555 533.909 582.555C538.206 582.555 542.45 582.286 546.609 581.802C609.513 574.496 647.149 512.213 683.476 452.044C711.066 406.317 737.138 363.146 773.117 343.862C786.728 343.862 806.82 351.751 815.837 364.266C848.67 409.799 892.562 435.706 936.734 435.706H939.826C979.211 434.635 1014.96 412.843 1040.65 374.372L1040.91 374.079C1041.14 373.858 1041.35 373.605 1041.54 373.324C1050.27 360.589 1066.33 354.21 1083.47 356.645C1099.81 358.958 1113.33 368.82 1119.66 382.82C1134.86 416.641 1154.84 433.515 1175.92 430.35C1201.38 426.527 1223.69 394.459 1237.08 342.401L1234 340.843C1221.21 390.466 1199.36 422.241 1175.54 425.796C1155.78 428.767 1136.91 412.648 1122.4 380.385C1115.56 365.143 1101.11 354.551 1083.77 352.092C1065.69 349.51 1048.6 356.451 1039.18 370.159L1038.94 370.451C1038.69 370.689 1038.46 370.958 1038.25 371.255C1013.23 408.825 978.249 430.082 939.755 431.128C895.445 432.346 851.117 406.78 818.143 361.077C808.343 347.466 787.406 339.333 772.816 339.333H772.519L772.242 339.479C735.321 359.129 708.919 402.787 680.961 449.05C645.073 508.511 607.943 569.99 546.42 577.225C511.734 581.266 472.541 568.118 426.62 536.999C374.498 501.695 315.282 444.472 245.564 362.002C230.939 344.714 199.244 343.74 183.92 360.102C183.769 360.206 183.627 360.337 183.5 360.492C179.883 364.363 171.881 364.096 168.474 359.981C161.659 351.751 146.823 339.357 130.381 331.614C116.77 325.186 97.8993 320.097 85.3536 332.272C72.8079 344.446 49.3581 346.881 35.8688 341.525C31.0296 339.935 26.0757 339.118 21.1038 339.09H-39.7026V343.667H21.1038C25.7354 343.717 30.3484 344.493 34.8554 345.98Z" fill="#D8D1FF"/>
<path d="M34.4543 386.616C48.695 392.119 74.0488 389.051 86.6468 376.877C107.265 356.886 153.202 388.808 165.363 403.466C169.924 408.993 179.867 409.334 184.707 404.123C184.875 404.011 185.032 403.872 185.178 403.709C198.859 389.099 229.298 390.001 242.315 405.389C309.5 484.841 367.18 540.256 418.67 574.86C459.909 602.544 496.131 616.106 529.031 616.106C532.633 616.106 536.215 615.937 539.742 615.617C605.948 609.483 646.12 547.025 684.982 486.567C712.71 443.471 738.903 402.735 773.046 384.303C786.832 384.449 807.05 392.338 815.489 404.026C847.623 448.412 891.016 473.353 936.261 473.443H939.566C979.596 472.323 1015.36 451.166 1040.21 413.839L1040.44 413.595C1040.69 413.364 1040.93 413.095 1041.14 412.791C1049.63 400.422 1065.6 394.262 1083.07 396.721C1099.43 399.156 1112.78 408.482 1118.84 421.947C1133.5 454.574 1154.2 471.425 1175.64 468.21C1201.45 464.314 1224.57 432.343 1237.31 382.647L1233.81 380.943C1221.48 428.764 1199.56 459.493 1175.19 463.145C1155.2 466.164 1135.76 450.167 1121.86 419.317C1115.22 404.512 1100.89 394.213 1083.42 391.729C1064.97 389.1 1047.76 395.844 1038.52 409.309L1038.31 409.529C1038.04 409.775 1037.79 410.061 1037.57 410.381C1013.37 446.734 978.529 467.333 939.495 468.405C917.026 468.951 894.705 463.225 873.85 451.562C852.991 439.899 834.022 422.535 818.058 400.495C808.62 387.395 787.163 379.312 772.627 379.312H772.293L771.979 379.482C736.878 398.157 710.317 439.454 682.204 483.162C643.76 542.815 604.149 604.515 539.445 610.503C465.745 617.301 369.293 548.926 244.603 401.469C230.258 384.425 197.967 383.548 182.871 399.643L182.4 400.056C178.905 403.709 170.885 403.441 167.67 399.57C153.325 382.282 106.408 351.407 84.4968 372.786C72.877 384.059 48.5542 386.86 35.362 381.747C30.5188 380.201 25.5652 379.425 20.5967 379.433H-39.9126V384.522H20.5967C25.2573 384.498 29.9061 385.2 34.4543 386.616Z" fill="#D8D1FF"/>
<path d="M34.1046 427.232C48.083 432.661 73.9789 429.666 86.2799 417.808C105.256 399.376 151.088 427.305 164.559 443.57C169.085 449.024 179.307 449.365 184.077 444.227C184.254 444.09 184.423 443.936 184.584 443.764C197.636 429.837 228.93 430.713 241.319 445.371C370.289 597.916 458.667 649.756 524.386 649.732C598.785 649.732 644.233 583.357 686.66 521.365C714.422 480.824 740.648 442.498 772.958 425.137C784.82 425.283 806.402 432.028 815.121 444.154C845.699 486.568 890.641 511.576 935.947 511.576H939.32C979.998 510.456 1015.7 489.88 1039.77 453.723L1039.96 453.529C1040.24 453.283 1040.49 452.997 1040.72 452.676C1048.84 440.843 1065.32 434.78 1082.65 437.239C1098.99 439.674 1112.18 448.634 1117.98 461.588C1132.31 493.483 1153.21 509.873 1175.35 506.537C1201.84 502.567 1225.06 471.496 1237.45 423.409L1233.67 421.509C1221.81 467.529 1199.85 497.237 1174.93 500.986C1154.38 504.077 1134.86 488.615 1121.38 458.617C1114.94 444.276 1100.62 434.268 1083.06 431.833C1064.24 429.155 1046.89 435.729 1037.85 448.877L1037.66 449.073C1037.38 449.34 1037.12 449.642 1036.87 449.973C1013.48 485.11 978.793 505.051 939.215 506.123C893.784 507.389 848.511 482.795 817.933 440.38C808.235 426.915 785.347 419.732 772.502 419.732H772.138L771.787 419.927C738.464 437.653 711.853 476.539 683.669 517.715C643.484 576.371 601.982 637.022 536.249 643.767C461.114 651.435 365.448 585.332 243.783 441.306C229.717 424.675 196.833 423.726 182.033 439.503L181.509 439.966C178.241 443.472 170.15 443.229 167.075 439.503C154.844 424.772 105.92 392.023 83.8689 413.377C72.6161 424.285 47.978 427.012 35.0653 422.02C30.2231 420.52 25.2789 419.761 20.3186 419.756H-39.9126V425.357H20.3186C24.9495 425.283 29.5716 425.912 34.1046 427.232Z" fill="#D8D1FF"/>
<path d="M33.6494 467.875C47.4708 473.209 73.8373 470.309 85.7893 458.671C104.695 440.336 152.188 469.725 163.668 483.606C168.141 489.011 178.641 489.349 183.376 484.259H183.289C183.489 484.132 183.677 483.968 183.849 483.775C196.552 470.212 228.144 471.088 240.183 485.332C352.693 618.399 444.305 683.41 519.578 683.41C524.307 683.41 528.966 683.152 533.557 682.634C601.964 675.014 647.935 611.874 688.475 556.163C716.153 518.129 742.308 482.218 772.815 465.804C785.049 465.951 806.627 472.889 814.752 484.114C844.456 525.289 889.31 549.539 935.457 549.539H939.058C979.737 548.42 1016.27 527.966 1039.34 493.418L1039.46 493.273C1039.76 493.019 1040.04 492.718 1040.29 492.369C1048.18 480.877 1064.76 475.058 1082.23 477.565C1098.55 479.88 1111.59 488.597 1117.18 500.87C1131.16 532.059 1152.32 547.982 1175.16 544.548C1202.31 540.46 1225.67 510.292 1237.66 463.833L1233.53 461.763C1222.12 505.979 1200.12 534.641 1174.68 538.461C1153.59 541.65 1133.99 526.752 1120.9 497.629C1114.66 483.775 1100.4 473.986 1082.74 471.478C1063.52 468.751 1046.15 475.105 1037.21 488.06L1037.06 488.183C1036.75 488.451 1036.46 488.78 1036.21 489.156C1013.95 522.561 978.548 542.332 938.988 543.428C892.807 544.694 847.48 520.933 817.861 479.828C808.409 466.73 785.434 459.742 772.434 459.742H772.032L771.647 459.937C740.107 476.714 713.55 513.214 685.416 551.854C602.524 665.737 508.586 794.81 243.012 480.708C229.523 464.782 195.52 463.784 181.262 478.906C181.07 479.052 180.885 479.217 180.704 479.391C177.629 482.702 169.416 482.458 166.533 478.977C160.277 471.408 145.092 460.034 128.196 452.9C114.217 446.959 94.998 442.284 83.2912 453.63C72.807 463.881 47.3827 466.828 34.837 461.958C29.9971 460.498 25.0597 459.763 20.1078 459.766H-39.8438V465.878H20.1247C24.6705 465.887 29.2035 466.556 33.6494 467.875Z" fill="#D8D1FF"/>
<path d="M33.2657 508.488C46.7549 513.719 73.9964 510.558 85.3542 499.55C102.827 482.676 150.337 508.582 162.83 523.654C167.198 528.937 177.822 529.327 182.574 524.435C182.792 524.299 182.998 524.125 183.187 523.922C195.278 511.019 227.674 511.894 239.101 525.409C348.029 654.242 438.399 717.184 514.671 717.184C520.076 717.184 525.403 716.864 530.659 716.234C600.254 707.907 648.237 645.887 690.556 591.178C718.042 555.628 744.008 522.074 772.678 506.611C784.754 506.757 806.646 513.601 814.319 524.214C843.863 565.22 890.378 588.91 938.746 587.523C979.998 586.403 1016.47 566.584 1038.8 533.152C1039.13 532.888 1039.44 532.559 1039.71 532.178C1047.36 521.025 1063.87 515.45 1081.76 518.009C1097.82 520.295 1111 528.843 1116.17 540.359C1129.67 570.381 1151.57 586.234 1174.77 582.753C1202.17 578.613 1226.26 548.662 1237.67 504.419L1233.2 502.18C1222.42 543.962 1199.85 572.305 1174.28 576.153C1152.62 579.413 1132.91 565.074 1120.22 536.831C1114.19 523.438 1100 513.94 1082.27 511.409C1063.05 508.681 1045.05 514.961 1036.38 527.455H1036.28C1035.93 527.733 1035.61 528.076 1035.34 528.476C1013.9 560.69 978.618 579.78 938.588 580.876C891.408 582.165 846.26 559.204 817.603 519.444C808.519 506.856 784.98 499.964 772.172 499.964H771.737L771.335 500.185C741.628 516.01 715.155 550.172 687.2 586.304C645.439 640.289 598.087 701.477 530.132 709.634C451.922 719.009 357.691 657.112 242.053 520.371C228.878 504.762 194.334 503.765 180.303 518.541C180.083 518.672 179.877 518.842 179.692 519.053C176.809 522.144 168.509 521.904 165.818 518.64C153.761 504.028 103.334 473.936 82.5233 494.121C72.4064 503.859 46.8423 506.926 34.4192 502.109C29.5823 500.679 24.6513 499.959 19.7068 499.964H-39.9631V506.587H19.7068C24.2611 506.578 28.8036 507.218 33.2657 508.488Z" fill="#D8D1FF"/>
<path d="M32.8638 549.125C46.3007 554.333 73.9777 551.044 84.9334 540.404C102.18 523.68 151.333 550.781 161.991 563.708C166.307 568.892 177.158 569.306 181.876 564.512C182.11 564.367 182.333 564.188 182.539 563.976C194.264 551.435 226.956 552.286 238.034 565.387C355.104 703.859 441.683 750.929 509.654 750.929C590.294 750.929 644.759 684.648 692.81 626.137C719.982 593.095 745.648 561.831 772.627 547.295C784.543 547.469 806.753 554.187 813.987 564.343C842.222 603.519 889.976 627.04 938.57 625.7C980.399 624.557 1016.76 605.392 1038.37 573.107C1038.73 572.82 1039.06 572.467 1039.35 572.058C1046.68 561.417 1063.63 555.965 1081.53 558.519C1097.52 560.787 1110.52 568.991 1115.41 579.9C1128.61 609.117 1150.76 624.604 1174.69 621C1202.64 616.79 1226.93 587.718 1237.92 545.103L1233.1 542.671C1222.79 582.675 1200.18 609.969 1174.12 613.869C1152.21 617.18 1131.87 603.03 1119.76 576.075C1113.95 563.148 1099.85 553.919 1082.04 551.388C1062.44 548.589 1044.33 554.676 1035.79 566.898C1035.41 567.194 1035.06 567.561 1034.76 567.994C1014.11 599.013 979.018 617.42 938.465 618.54C891.285 619.834 844.895 597.112 817.602 559.277C808.481 546.613 783.547 540.258 772.171 540.258H771.698L771.263 540.479C743.305 555.382 717.095 587.182 689.454 620.831C645.944 673.79 596.638 733.811 527.424 742.575C447.503 752.802 353.933 693.049 241.371 559.959C228.476 544.717 193.389 543.715 179.586 558.134C179.359 558.284 179.142 558.463 178.939 558.67C176.248 561.563 167.879 561.347 165.363 558.303C158.618 550.169 142.404 539.82 126.835 533.733C99.5769 523.069 87.048 529.669 82.0158 534.561C72.4404 543.838 46.161 546.858 34.2441 542.234C29.4083 540.855 24.4848 540.164 19.5491 540.164H-39.8599V547.295H19.5491C24.0196 547.291 28.48 547.902 32.8638 549.125Z" fill="#D8D1FF"/>
<path d="M32.4614 589.742C44.3955 594.371 73.0521 592.395 84.497 581.294C91.4862 574.501 106.164 574.6 124.685 581.562C141.093 587.724 156.138 597.683 161.135 603.742C165.381 608.884 176.459 609.293 181.159 604.593C181.406 604.443 181.639 604.255 181.857 604.034C192.988 592.156 226.449 592.983 236.951 605.398C338.678 725.707 426.536 784.561 504.763 784.561C511.646 784.561 518.479 784.095 525.207 783.197C597.404 773.454 649.405 713.801 695.292 661.208C722.008 630.575 747.255 601.625 772.519 588.016C784.665 588.185 806.908 594.955 813.603 604.255C840.197 641.145 886.064 663.64 934.168 663.64H938.395C980.785 662.474 1017.02 643.944 1037.99 612.802C1038.39 612.515 1038.76 612.144 1039.08 611.706C1046.07 601.409 1063.14 596.22 1081.36 598.803C1097.3 601.065 1110.09 608.879 1114.74 619.205C1127.59 647.839 1150.01 662.718 1174.67 659.016C1203.31 654.73 1227.66 626.557 1238.23 585.556L1232.99 582.95C1223.14 621.204 1200.53 647.425 1174.02 651.419C1151.5 654.806 1131.04 641.239 1119.31 615.14C1113.7 602.674 1099.71 593.713 1081.85 591.182C1066.65 589.013 1045.38 591.666 1035.22 606.155C1034.8 606.452 1034.42 606.837 1034.09 607.298C1014.25 637.104 979.316 654.853 938.273 655.996C890.098 657.313 843.917 635.448 817.532 598.897C808.674 586.6 783.599 580.419 772.104 580.419H771.598L771.125 580.687C744.912 594.639 719.142 624.149 691.882 655.366C646.61 707.276 595.291 766.102 524.768 775.646C443.03 786.701 350.038 729.118 240.585 599.631C228.354 585.019 192.079 584.046 178.799 597.829C178.552 597.961 178.322 598.149 178.118 598.389C175.672 601.018 167.093 600.821 164.804 598.045C153.114 583.947 101.045 556.046 81.4224 575.084C72.2662 583.97 45.76 587.014 34.0005 582.39C29.1674 581.049 24.2505 580.372 19.3226 580.367H-39.7725V588.039H19.3226C23.7307 588.039 28.129 588.609 32.4614 589.742Z" fill="#D8D1FF"/>
<path d="M32.0601 630.456C43.7673 634.982 73.2965 632.695 84.0599 622.247C99.5763 607.175 149.304 630.602 160.295 643.873C164.471 648.911 175.776 649.348 180.476 644.748C180.736 644.592 180.984 644.395 181.212 644.164C192.01 632.62 225.734 633.425 235.885 645.453C334.033 761.524 420.628 818.331 499.817 818.331C507.473 818.341 515.126 817.795 522.742 816.699C596.358 806.256 650.383 747.891 698.033 696.418C724.242 668.198 748.878 641.511 772.435 628.8C783.058 628.993 806.523 635.005 813.251 644.334C839.741 681.078 887.582 703.037 938.148 701.649C981.098 700.483 1017.25 682.611 1037.43 652.589C1037.84 652.293 1038.22 651.907 1038.55 651.442C1045.3 641.704 1062.75 636.567 1081.01 639.267C1096.86 641.535 1109.42 649.009 1113.81 658.747C1126.35 686.676 1149.05 701.066 1174.47 697.27C1188.85 695.045 1202.48 687.189 1213.78 674.605C1225.08 662.026 1233.59 645.241 1238.32 626.194L1232.77 623.151C1228.41 640.758 1220.56 656.282 1210.12 667.92C1199.69 679.558 1187.09 686.831 1173.81 688.891C1150.66 692.373 1130.13 679.37 1118.74 654.17C1113.34 642.141 1099.51 633.472 1081.57 630.917C1066.07 628.725 1044.53 631.185 1034.5 645.354C1034.06 645.66 1033.67 646.065 1033.33 646.549C1014.27 675.16 979.525 692.227 937.993 693.375C889.068 694.711 842.745 673.65 817.427 638.416C808.933 626.655 783.301 620.498 771.996 620.498H771.456L770.949 620.766C746.485 633.792 721.238 661.01 694.555 689.842C647.5 740.656 594.19 798.245 522.253 808.448C438.591 820.354 346.192 764.958 239.781 639.098C227.76 624.877 191.031 623.856 177.978 637.296C177.722 637.447 177.481 637.644 177.262 637.879C174.99 640.316 166.36 640.119 164.245 637.564C153.325 624.393 99.8389 596.977 80.8282 615.408C72.0914 623.781 44.9731 626.801 33.6504 622.445C28.82 621.137 23.9096 620.488 18.9894 620.498H-39.824V628.655H18.9894C23.3762 628.697 27.7519 629.299 32.0601 630.456Z" fill="#D8D1FF"/>
<path d="M31.6752 670.994C43.1549 675.449 73.1551 673.21 83.6392 663.03C98.4565 648.64 149.182 671.455 159.456 683.851C163.563 688.72 175.06 689.228 179.76 684.749C180.043 684.594 180.306 684.378 180.545 684.119C190.75 673.233 225.243 674.038 234.818 685.356C329.349 797.169 414.703 851.954 494.837 851.931C503.391 851.926 511.942 851.3 520.452 850.054C595.587 838.905 654.035 779.444 701.039 731.546C727.563 704.544 750.488 681.221 772.329 669.409C783.266 669.63 806.698 675.694 812.865 684.265C838.484 719.786 886.464 740.997 937.975 739.586C981.448 738.391 1017.48 721.15 1036.94 692.299C1037.37 691.989 1037.77 691.589 1038.11 691.105C1044.63 681.607 1062.17 676.837 1080.76 679.466C1096.49 681.706 1108.85 688.79 1112.97 697.944C1125.03 724.73 1148.58 739.049 1174.42 735.178C1204.13 730.695 1228.73 704.399 1238.5 666.535L1232.62 663.59C1221.93 704.982 1195.2 723.319 1173.74 726.532C1150.31 730.064 1129.04 717.33 1118.24 693.344C1113 681.781 1099.29 673.379 1081.39 670.82C1064.34 668.388 1043.14 671.77 1033.88 684.702C1033.42 685.013 1033.01 685.441 1032.66 685.968C1014.67 712.97 979.227 729.796 937.85 730.892C936.331 730.892 934.829 730.892 933.309 730.892C885.799 730.892 840.614 710.415 817.271 678.027C809.162 666.779 782.952 660.645 771.839 660.645H771.262L770.739 660.937C748.023 673.111 724.555 696.877 697.35 724.462C648.549 774.133 593.227 830.456 519.787 841.337C434.046 854.048 342.154 800.843 238.854 678.662C227.112 664.785 189.929 663.783 177.034 676.86C176.76 677.03 176.503 677.241 176.266 677.495C174.169 679.758 165.484 679.537 163.545 677.199C153.061 664.493 98.893 637.609 80.0744 655.823C71.7572 663.881 44.3071 666.803 33.3338 662.569C28.5067 661.294 23.6048 660.65 18.6913 660.645H-39.8438V669.409H18.6913C23.0434 669.418 27.3883 669.945 31.6752 670.994Z" fill="#D8D1FF"/>
<path d="M31.2736 711.634C42.5264 715.99 73.034 713.774 83.2035 703.914C97.3041 690.23 148.99 712.264 158.618 723.879C162.654 728.752 174.344 729.213 179.062 724.853C179.354 724.674 179.629 724.443 179.883 724.17C189.493 713.92 224.737 714.701 233.753 725.365C324.614 832.917 408.783 885.632 489.842 885.632C499.368 885.632 508.888 884.898 518.357 883.44C595.044 871.627 655.643 813.507 704.325 766.833C729.923 742.263 752.058 721.033 772.225 710.124C783.021 710.34 806.716 716.234 812.411 724.269C836.875 758.064 885.938 779.007 937.713 777.596C981.692 776.377 1017.62 759.795 1036.38 732.059C1036.84 731.758 1037.25 731.344 1037.61 730.846C1043.79 721.832 1061.82 717.208 1080.47 719.861C1096.09 722.077 1108.2 728.776 1112.04 737.37C1123.8 763.521 1147.65 777.276 1174.32 773.282C1188.08 771.287 1201.26 764.523 1212.67 753.609C1224.58 742.244 1233.64 725.977 1238.59 707.08L1232.36 703.961C1222.21 743.335 1195.36 760.868 1173.6 764.128C1149.51 767.755 1128.05 755.632 1117.69 732.473C1110.49 716.479 1089.73 711.925 1081.19 710.707C1063.71 708.27 1042.32 711.413 1033.2 724.025C1032.71 724.34 1032.27 724.777 1031.89 725.318C1014.7 751.125 979.474 767.246 937.625 768.39C887.599 769.754 840.264 749.883 817.059 717.745C808.657 706.083 780.715 700.918 771.506 700.918H770.912L770.335 701.209C749.368 712.41 726.652 734.106 700.443 759.235C652.375 805.35 592.55 862.741 517.499 874.309C429.54 887.847 338.087 836.835 237.93 718.351C226.485 704.789 188.706 703.745 176.108 716.526C175.823 716.705 175.554 716.921 175.304 717.185C173.417 719.208 164.594 719.01 162.846 716.94C157.115 710.001 140.744 700.941 123.934 695.39C111.791 691.373 89.8433 686.165 79.3419 696.364C71.5837 703.891 43.5047 706.859 32.951 702.771C28.121 701.529 23.2197 700.913 18.3086 700.918H-39.9297V710.124H18.3785C22.6995 710.124 27.0127 710.632 31.2736 711.634Z" fill="#D8D1FF"/>
<path d="M30.8726 752.196C41.9158 756.482 72.8943 754.313 82.7667 744.745C96.3782 731.545 149.166 753.509 157.78 763.881C161.729 768.75 173.645 769.117 178.328 764.878C178.646 764.7 178.945 764.46 179.219 764.173C188.515 754.266 223.985 755.019 232.669 765.292C329.891 880.272 413.448 919.326 485.106 919.326C578.236 919.326 651.258 853.317 707.907 802.112C732.368 779.951 753.615 760.715 772.121 750.78C782.795 751.001 806.733 756.75 812.134 764.225C835.633 796.825 884.926 816.963 937.662 815.528C981.483 814.333 1018.16 797.996 1035.98 771.7C1036.46 771.394 1036.9 770.966 1037.26 770.434C1043.23 761.741 1061.39 757.38 1080.4 760.085C1095.86 762.277 1107.71 768.632 1111.31 776.615C1122.76 802.084 1146.94 815.354 1174.44 811.215C1188.22 809.276 1201.47 802.752 1213.07 792.2C1224.91 781.555 1233.95 765.852 1238.85 747.445L1232.28 744.161C1225.97 768.51 1207.27 796.509 1173.69 801.576C1148.88 805.273 1127.23 793.757 1117.22 771.455C1110.22 756.115 1089.66 751.636 1081.1 750.418C1063.33 747.981 1041.61 750.879 1032.61 763.176C1032.1 763.5 1031.64 763.952 1031.25 764.516C1014.84 789.157 979.805 804.544 937.52 805.715C886.57 807.127 839.285 788.084 817.059 757.234C808.917 745.963 780.803 740.944 771.49 740.944H770.845L770.251 741.264C750.907 751.561 729.225 771.163 704.116 793.856C654.367 838.828 592.479 894.784 515.7 907.006C473.574 913.7 432.16 906.785 389.109 885.846C339.886 861.888 288.777 818.788 237.196 757.794C226.31 744.938 187.484 743.917 175.357 755.992C175.048 756.157 174.759 756.387 174.501 756.674C172.649 758.523 164.122 758.354 162.27 756.43C151.296 743.188 95.7155 720.175 78.7141 736.658C71.445 743.696 42.7006 746.645 32.6712 742.745C27.8422 741.565 22.949 740.958 18.046 740.944H-39.9126V750.686H18.046C22.3427 750.714 26.6326 751.222 30.8726 752.196Z" fill="#D8D1FF"/>
<path d="M30.4701 792.882C41.2338 797.045 73.0704 794.636 82.3487 785.576C87.7307 780.369 102.564 780.562 121.051 786.136C138.524 791.372 153.237 799.43 156.941 803.913C160.645 808.391 172.912 809.074 177.612 804.957C177.952 804.76 178.274 804.506 178.573 804.205C187.309 794.905 223.462 795.634 231.605 805.254C282.277 865.175 333.402 907.348 383.62 930.578C414.873 945.217 447.611 952.748 480.579 952.88C492.067 952.875 503.544 951.93 514.951 950.053C595.203 936.905 659.978 881.88 711.87 837.515C735.092 817.72 755.205 800.578 772.05 791.447C782.954 791.692 806.858 797.365 811.803 804.205C833.624 834.518 880.315 853.584 931.843 853.584H937.591C981.851 852.366 1018.39 836.711 1035.53 811.633C1036.03 811.308 1036.47 810.866 1036.86 810.315C1042.52 802.064 1061.2 797.896 1080.31 800.578C1095.38 802.695 1107.22 808.805 1110.51 816.111C1121.66 840.921 1146.2 853.683 1174.56 849.421C1188.36 847.511 1201.65 841.231 1213.44 831.061C1225.17 821.111 1234.19 805.988 1239.06 788.084L1232.07 784.626C1226.13 807.686 1207.6 834.152 1173.71 839.241C1148.54 843.019 1126.15 831.818 1116.66 810.682C1110.05 796.071 1089.52 791.593 1080.99 790.374C1062.84 787.792 1040.81 790.591 1031.93 802.549C1031.4 802.888 1030.92 803.358 1030.51 803.937C1014.89 827.41 980.069 842.092 937.365 843.259C886.307 844.67 837.871 826.07 816.904 796.998C808.971 785.99 779.565 781.267 771.318 781.267H770.632L770.005 781.611C752.393 790.958 731.811 808.391 707.958 828.822C656.605 872.65 592.634 927.045 514.006 939.948C470.806 946.859 427.042 940.353 385.858 920.911C336.565 898.095 286.26 856.581 236.304 797.511C225.82 784.993 186.384 783.972 174.467 795.709C174.159 795.888 173.866 796.118 173.593 796.386C171.706 798.07 163.458 797.896 161.693 796.217C155.7 788.911 137.477 780.684 122.554 776.177C110.183 772.452 87.9745 767.658 78.0845 777.226C71.3049 783.826 41.9144 786.696 32.3916 782.998C27.566 781.85 22.6805 781.272 17.785 781.267H-39.8765V791.494H17.785C22.0327 791.508 26.273 791.969 30.4701 792.882Z" fill="#D8D1FF"/>
<path d="M30.0684 833.497C39.574 837.195 72.4061 835.76 81.9112 826.53C87.0134 821.661 101.726 821.807 120.352 827.142C137.983 832.204 152.643 839.824 156.102 844.016C159.894 848.593 172.125 849.101 176.878 845.135C177.251 844.928 177.602 844.66 177.925 844.331C186.068 835.638 222.954 836.343 230.555 845.328C319.79 950.857 402.159 986.726 475.319 986.698C574.583 986.698 656.865 920.642 716.153 873.064C737.89 855.579 756.723 840.459 771.928 832.227C782.69 832.472 806.874 837.952 811.397 844.406C832.364 873.501 878.967 891.787 931.298 891.787C933.344 891.787 935.407 891.787 937.486 891.787C982.181 890.568 1018.55 875.571 1035.02 851.637C1035.55 851.312 1036.02 850.846 1036.42 850.272C1041.78 842.482 1061.02 838.488 1080.22 841.212C1095.08 843.334 1106.63 849.054 1109.65 855.823C1120.32 879.589 1145.87 892.125 1174.72 887.793C1188.5 885.921 1201.82 879.88 1213.75 870.091C1226.18 859.572 1234.97 845.352 1239.21 828.915L1231.94 825.265C1224.95 852.535 1202.13 872.866 1173.9 877.105C1147.95 881 1125.3 870.406 1116.24 850.126C1109.93 836.075 1089.54 831.766 1081.06 830.646C1063.12 828.21 1040.17 830.647 1031.4 842.261C1030.84 842.6 1030.34 843.098 1029.92 843.724C1015.09 865.975 980.487 879.979 937.311 881.169C885.327 882.581 836.891 864.855 816.745 837.025C808.639 825.778 777.238 821.807 771.124 821.807H770.426L769.761 822.174C753.84 830.623 734.551 846.133 712.187 864.079C662.023 904.351 593.37 959.527 512.658 973.089C468.976 980.474 424.662 974.712 382.711 956.191C333.28 934.519 283.726 894.586 235.43 837.463C225.156 825.288 185.37 824.291 173.593 835.638C173.284 835.83 172.991 836.066 172.719 836.343C170.972 837.83 162.829 837.684 160.995 836.15C151.314 824.682 93.6529 802.304 77.4201 818.035C70.9376 824.338 41.3381 827.09 31.9899 823.487C27.1619 822.372 22.2758 821.807 17.3816 821.807H-40V832.57H17.3816C21.6206 832.462 25.8609 832.768 30.0684 833.497Z" fill="#D8D1FF"/>
<path d="M29.6835 874.132C38.9791 877.74 72.2666 876.324 81.475 867.39C92.9027 856.312 147.663 874.912 155.247 884.067C158.951 888.522 171.357 889.058 176.214 885.238C176.612 885.022 176.988 884.735 177.332 884.387C184.915 876.277 222.483 876.959 229.542 885.309C277.051 941.481 326.866 980.611 377.611 1001.55C407.861 1014.03 439.246 1020.35 470.796 1020.3C484.876 1020.3 498.946 1019.09 512.922 1016.67C597.266 1002.06 668.748 948.081 720.941 908.59C740.966 893.419 758.317 880.294 771.912 872.941C782.515 873.186 806.854 878.445 811.101 884.311C834.9 917.306 891.705 930.817 937.487 929.575C982.601 928.333 1018.77 914.018 1034.6 891.203C1035.15 890.878 1035.64 890.394 1036.05 889.792C1041.12 882.486 1060.97 878.638 1080.3 881.39C1094.89 883.46 1106.1 888.696 1108.88 894.976C1119.36 918.083 1145.24 930.111 1175.03 925.656C1188.79 923.803 1202.12 917.998 1214.19 908.613C1226.67 898.509 1235.41 884.895 1239.46 869.192L1231.84 865.391C1225.27 890.911 1202.62 910.17 1174.18 914.456C1147.84 918.398 1124.38 908.176 1115.75 889.011C1109.95 876.079 1091.56 871.676 1081.13 870.189C1062.79 867.583 1039.53 869.968 1030.81 881.221C1030.22 881.555 1029.69 882.072 1029.26 882.731C1015.42 903.5 980.19 917.132 937.345 918.304C884.386 919.762 836.001 902.888 816.779 876.324C808.971 865.49 777.343 861.717 771.142 861.717H770.406L769.707 862.079C755.522 869.63 737.698 883.117 717.062 898.603C665.446 937.685 594.751 991.129 511.909 1005.43C467.643 1013.27 422.684 1008.25 379.879 990.668C330.239 970.167 281.402 931.819 234.767 876.644C224.772 864.831 184.514 863.834 172.93 874.842C172.608 875.016 172.302 875.242 172.02 875.519C168.234 876.832 164.271 876.771 160.505 875.35C154.879 868.755 136.55 861.106 121.244 856.943C108.646 853.537 86.1569 849.129 76.9312 858.086C70.9028 863.933 40.7095 866.61 31.9207 863.199C28.5658 861.91 18.6241 861.595 17.3312 861.595H-39.7725V872.843H17.3312C21.4649 872.894 25.5904 873.327 29.6835 874.132Z" fill="#D8D1FF"/>
<path d="M29.2829 914.751C38.3688 918.284 72.1448 916.92 81.0387 908.274C84.4286 904.99 96.3802 903.212 118.903 909.031C137.984 913.9 151.786 920.937 154.407 924.103C158.024 928.459 170.535 928.972 175.375 925.345C175.816 925.129 176.23 924.818 176.599 924.418C183.868 916.675 221.645 917.31 228.408 925.293C274.344 979.641 323.582 1017.21 374.762 1036.98C404.422 1048.38 435.05 1054.11 465.817 1054.03C481.427 1054 497.019 1052.62 512.504 1049.89C550.944 1043.14 590.103 1028.51 632.439 1005.14C668.468 985.267 700.41 962.499 726.059 944.261C744.146 931.381 759.803 920.208 771.737 913.754C782.222 913.999 806.787 919.037 810.666 924.418C833.382 956.073 890.763 968.929 937.4 967.664C982.831 966.422 1018.88 952.784 1034.04 931.141C1034.62 930.807 1035.14 930.308 1035.56 929.678C1040.33 922.715 1060.81 919.159 1080.26 921.935C1096.54 924.249 1105.91 929.946 1107.99 934.546C1118.07 956.999 1144.49 968.492 1175.3 963.764C1213.91 957.973 1233.81 932.114 1239.55 909.784L1231.6 905.79C1224.13 934.721 1196.13 948.791 1174.39 952.055C1147.2 956.143 1123.4 946.551 1115.15 928.191C1109.61 915.894 1091.46 911.585 1081.12 910.127C1062.35 907.446 1038.74 909.638 1030.11 920.547C1029.45 920.89 1028.86 921.431 1028.36 922.127C1015.31 941.73 980.366 954.661 937.157 955.852C884.072 957.291 834.482 940.925 816.591 916.017C808.641 904.962 774.549 901.895 770.933 901.895H770.147L769.414 902.285C756.971 908.909 740.845 920.401 722.234 933.719C618.969 1007.38 426.746 1144.46 233.893 916.384C227.061 908.297 208.348 907.375 202.774 907.3C197.2 907.229 179.605 907.497 172.056 914.605C171.733 914.784 171.427 915.024 171.147 915.311C167.409 916.501 163.523 916.435 159.808 915.118C154.112 908.542 135.501 901.434 120.474 897.562C104.976 893.568 84.7078 890.525 76.2508 898.729C70.6416 904.157 39.8184 906.74 31.571 903.598C28.4086 902.384 18.2738 902.041 17.0157 902.041H-39.8062V913.825H17.0157C21.1142 913.782 25.2117 914.093 29.2829 914.751Z" fill="#D8D1FF"/>
<path d="M28.8622 955.393C37.5987 958.752 72.2136 957.289 80.6007 949.16C84.0953 945.825 96.9729 944.799 118.185 949.964C137.213 954.589 151.175 961.311 153.551 964.157C157.046 968.395 169.609 969.026 174.519 965.474C175.013 965.258 175.473 964.919 175.881 964.472C182.608 957.294 221.049 957.9 227.287 965.3C271.669 1017.8 320.421 1053.84 372.175 1072.44C401.149 1082.72 430.937 1087.85 460.833 1087.71C478.185 1087.68 495.519 1086.11 512.729 1083.01C601.981 1067.06 680.07 1014.53 731.756 979.789C747.585 969.148 761.301 959.923 771.577 954.368C782.062 954.636 806.82 959.603 810.226 964.355C832.071 994.645 889.82 1006.89 937.381 1005.6C983.194 1004.34 1018.96 991.357 1033.48 970.827C1034.08 970.479 1034.63 969.957 1035.07 969.294C1039.08 963.475 1058.64 959.142 1080.33 962.209C1096.23 964.472 1105.23 969.684 1107.1 973.824C1112.18 985.17 1121.95 993.718 1135.3 998.54C1148.52 1002.92 1162.18 1004.03 1175.68 1001.83C1201.17 998.003 1231.38 982.348 1239.67 950.303L1231.37 946.14C1225.67 968.226 1203.41 985.293 1174.74 989.602C1147.08 993.765 1122.32 984.587 1114.58 967.299C1109.58 956.198 1093.61 951.766 1081.22 949.988C1067.38 948.012 1039.28 947.551 1029.43 959.726C1028.77 960.088 1028.17 960.648 1027.68 961.358C1015.45 979.812 980.73 992.015 937.189 993.205C883.143 994.692 833.502 979.206 816.448 955.539C808.795 944.922 774.409 941.977 770.756 941.977H769.936L769.183 942.367C758.492 948.064 744.317 957.585 727.894 968.64C676.731 1003.02 599.412 1055 511.591 1070.71C463.453 1079.31 417.238 1075.85 374.359 1060.43C323.915 1042.32 276.334 1007.13 232.966 955.854C226.571 948.257 209.063 947.213 201.829 947.09C196.378 947.09 178.484 947.283 171.146 954.005C170.829 954.184 170.526 954.405 170.238 954.659C166.546 955.737 162.731 955.685 159.054 954.518C149.025 943.318 89.5644 925.296 75.5157 938.98C70.2738 944.023 38.8217 946.455 31.1861 943.487C27.9187 942.193 16.7526 941.977 16.648 941.977H-39.8943V954.297H16.6307C20.7198 954.33 24.8038 954.697 28.8622 955.393Z" fill="#D8D1FF"/>
<path d="M28.4783 996.031C36.9704 999.314 72.1612 997.856 80.1814 990.014C83.3789 986.923 96.1512 985.997 117.486 990.894C136.008 995.151 150.493 1001.51 152.729 1004.21C156.224 1008.45 168.84 1009.08 173.82 1005.58C174.337 1005.34 174.822 1004.99 175.253 1004.53C177.175 1002.48 186.4 999.658 200.92 999.902C215.441 1000.14 224.457 1003.16 226.239 1005.28C291.519 1082.47 368.644 1121.35 456.118 1121.35C475.4 1121.31 494.662 1119.51 513.776 1115.97C554.386 1108.67 596.199 1094.06 641.647 1071.34C679.861 1052.3 713.514 1030.97 738.083 1015.34C751.343 1006.94 762.857 999.634 771.418 995.005C781.765 995.25 806.368 999.879 809.862 1004.28C830.724 1033.24 888.98 1044.85 937.415 1043.51C983.491 1042.24 1019.03 1029.95 1032.96 1010.54C1033.58 1010.17 1034.13 1009.64 1034.6 1008.96C1038.43 1003.41 1058.85 999.465 1080.48 1002.56C1098.2 1004.99 1105.07 1010.59 1106.22 1013.14C1117.04 1037.2 1149.16 1043.88 1176.12 1039.81C1201.75 1035.96 1231.91 1021.06 1239.72 990.748L1231.07 986.434C1225.83 1006.79 1203.87 1022.76 1175.16 1027.07C1146.99 1031.31 1121.25 1022.6 1114 1006.35C1109.27 995.833 1093.66 991.548 1081.41 989.798C1064.94 987.361 1037.89 988.09 1028.76 999.023C1028.1 999.413 1027.5 1000 1027.02 1000.75C1015.5 1018.02 981.118 1029.51 937.294 1030.7C882.235 1032.21 832.456 1017.63 816.364 995.203C808.569 984.393 770.932 982.177 770.652 982.177H769.812L769.008 982.614C760.116 987.337 748.18 994.789 734.342 1003.68C685.417 1034.75 603.416 1086.7 512.658 1103.24C462.737 1112.32 415.456 1109.66 372.125 1095.35C321.016 1078.45 273.925 1044.85 232.181 995.518C223.444 985.098 181.508 984.073 170.395 993.641C170.076 993.815 169.771 994.036 169.488 994.3C165.823 995.25 162.059 995.203 158.408 994.154C152.153 987.314 129.998 980.789 118.972 978.254C103.246 974.627 82.749 971.898 74.9034 979.496C70.1509 984.125 38.21 986.486 30.9237 983.687C27.7785 982.445 16.5095 982.224 16.387 982.224H-39.8599V995.057H16.387C20.4271 995.076 24.4635 995.4 28.4783 996.031Z" fill="#D8D1FF"/>
<path d="M28.0761 1036.64C35.4322 1039.49 71.5324 1038.86 79.745 1030.89C82.5931 1028.12 95.3134 1027.22 116.439 1031.77C135.013 1035.74 149.638 1041.73 151.822 1044.24C155.316 1048.38 167.896 1048.99 172.964 1045.7C173.529 1045.45 174.061 1045.07 174.537 1044.58C176.284 1042.75 185.51 1040.15 199.96 1040.32C214.41 1040.49 223.513 1043.38 225.104 1045.19C286.854 1118.24 362.619 1155 450.98 1155C472.751 1154.92 494.494 1152.84 516.068 1148.77C611.438 1131.07 695.204 1080.88 745.247 1050.91C755.59 1044.7 764.59 1039.32 771.335 1035.69C781.364 1035.93 806.017 1040.32 809.461 1044.26C829.344 1071.85 888.089 1082.86 937.554 1081.49C983.877 1080.2 1019.16 1068.59 1032.45 1050.32C1033.11 1049.95 1033.71 1049.39 1034.2 1048.67C1037.78 1043.46 1058.91 1039.8 1080.78 1042.92C1096.7 1045.19 1104.23 1049.91 1105.4 1052.66C1115.89 1075.99 1148.88 1082.17 1176.9 1077.96C1202.61 1074.09 1232.68 1059.84 1240 1031.38L1231 1026.88C1226.2 1045.55 1204.55 1060.4 1175.89 1064.72C1146.69 1069.1 1120.46 1061.06 1113.51 1045.58C1109.91 1037.59 1099.24 1032.28 1081.76 1029.8C1064.88 1027.36 1037.35 1027.83 1028.21 1038.39C1027.47 1038.78 1026.82 1039.39 1026.29 1040.19C1015.56 1056.32 981.483 1066.98 937.382 1068.27C882.202 1069.8 831.231 1055.78 816.222 1034.94C808.745 1024.59 770.791 1022.47 770.477 1022.47H769.603L768.782 1022.91C761.795 1026.63 752.376 1032.26 741.489 1038.78C691.899 1068.49 608.885 1118.21 514.809 1135.67C400.971 1156.8 305.569 1122.98 231.308 1035.16C222.86 1025.17 181.02 1024.09 169.78 1033.08C169.613 1033.21 169.448 1033.32 169.266 1033.44C168.85 1033.7 168.416 1033.95 167.935 1034.05C164.801 1034.69 161.615 1034.65 158.489 1033.94C157.954 1033.82 157.481 1033.53 157.077 1033.16C150.268 1026.93 129.775 1021.2 118.203 1018.7C102.302 1015.26 81.7536 1012.71 74.2401 1020.01C69.6099 1024.37 37.4418 1026.51 30.5573 1023.86C27.4819 1022.67 16.1427 1022.47 16.0377 1022.47H-39.8765V1035.79H16.0377C18.9908 1035.74 26.6781 1036.2 28.0761 1036.64Z" fill="#D8D1FF"/>
</svg>
